<svg xmlns="http://www.w3.org/2000/svg" xmlns:rdkit="http://www.rdkit.org/xml" xmlns:xlink="http://www.w3.org/1999/xlink" version="1.1" baseProfile="full" xml:space="preserve" width="300px" height="200px" viewBox="0 0 300 200">
<!-- END OF HEADER -->
<rect style="opacity:1.0;fill:#FFFFFF;stroke:none" width="300.0" height="200.0" x="0.0" y="0.0"> </rect>
<path class="bond-3 atom-3 atom-4" d="M 198.2,92.6 L 241.4,167.4 L 225.4,176.7 L 182.2,101.8 Z" style="fill:#FF7F7F;fill-rule:evenodd;fill-opacity:1;stroke:#FF7F7F;stroke-width:0.0px;stroke-linecap:butt;stroke-linejoin:miter;stroke-opacity:1;"/>
<ellipse cx="190.2" cy="97.2" rx="17.3" ry="17.3" class="atom-3" style="fill:#FF7F7F;fill-rule:evenodd;stroke:#FF7F7F;stroke-width:1.0px;stroke-linecap:butt;stroke-linejoin:miter;stroke-opacity:1"/>
<ellipse cx="233.4" cy="172.2" rx="17.3" ry="17.8" class="atom-4" style="fill:#FF7F7F;fill-rule:evenodd;stroke:#FF7F7F;stroke-width:1.0px;stroke-linecap:butt;stroke-linejoin:miter;stroke-opacity:1"/>
<path class="bond-0 atom-0 atom-1" d="M 103.8,97.2 L 86.6,127.0" style="fill:none;fill-rule:evenodd;stroke:#000000;stroke-width:2.0px;stroke-linecap:butt;stroke-linejoin:miter;stroke-opacity:1"/>
<path class="bond-0 atom-0 atom-1" d="M 86.6,127.0 L 69.4,156.8" style="fill:none;fill-rule:evenodd;stroke:#FF0000;stroke-width:2.0px;stroke-linecap:butt;stroke-linejoin:miter;stroke-opacity:1"/>
<path class="bond-1 atom-0 atom-2" d="M 111.3,97.2 L 93.2,66.0" style="fill:none;fill-rule:evenodd;stroke:#000000;stroke-width:2.0px;stroke-linecap:butt;stroke-linejoin:miter;stroke-opacity:1"/>
<path class="bond-1 atom-0 atom-2" d="M 93.2,66.0 L 75.2,34.7" style="fill:none;fill-rule:evenodd;stroke:#FF0000;stroke-width:2.0px;stroke-linecap:butt;stroke-linejoin:miter;stroke-opacity:1"/>
<path class="bond-1 atom-0 atom-2" d="M 100.0,103.7 L 82.0,72.5" style="fill:none;fill-rule:evenodd;stroke:#000000;stroke-width:2.0px;stroke-linecap:butt;stroke-linejoin:miter;stroke-opacity:1"/>
<path class="bond-1 atom-0 atom-2" d="M 82.0,72.5 L 64.0,41.2" style="fill:none;fill-rule:evenodd;stroke:#FF0000;stroke-width:2.0px;stroke-linecap:butt;stroke-linejoin:miter;stroke-opacity:1"/>
<path class="bond-2 atom-0 atom-3" d="M 103.8,97.2 L 190.2,97.2" style="fill:none;fill-rule:evenodd;stroke:#000000;stroke-width:2.0px;stroke-linecap:butt;stroke-linejoin:miter;stroke-opacity:1"/>
<path class="bond-3 atom-3 atom-4" d="M 182.7,97.2 L 219.0,160.1" style="fill:none;fill-rule:evenodd;stroke:#000000;stroke-width:2.0px;stroke-linecap:butt;stroke-linejoin:miter;stroke-opacity:1"/>
<path class="bond-3 atom-3 atom-4" d="M 193.9,90.7 L 230.2,153.6" style="fill:none;fill-rule:evenodd;stroke:#000000;stroke-width:2.0px;stroke-linecap:butt;stroke-linejoin:miter;stroke-opacity:1"/>
<path class="bond-4 atom-3 atom-5" d="M 190.2,97.2 L 233.4,22.4" style="fill:none;fill-rule:evenodd;stroke:#000000;stroke-width:2.0px;stroke-linecap:butt;stroke-linejoin:miter;stroke-opacity:1"/>
<path d="M 102.9,98.7 L 103.8,97.2 L 108.1,97.2" style="fill:none;stroke:#000000;stroke-width:2.0px;stroke-linecap:butt;stroke-linejoin:miter;stroke-opacity:1;"/>
<path d="M 185.9,97.2 L 190.2,97.2 L 192.3,93.5" style="fill:none;stroke:#000000;stroke-width:2.0px;stroke-linecap:butt;stroke-linejoin:miter;stroke-opacity:1;"/>
<path class="atom-1" d="M 49.3 172.1 Q 49.3 166.2, 52.2 163.0 Q 55.1 159.7, 60.6 159.7 Q 66.0 159.7, 68.9 163.0 Q 71.8 166.2, 71.8 172.1 Q 71.8 178.1, 68.9 181.4 Q 65.9 184.8, 60.6 184.8 Q 55.2 184.8, 52.2 181.4 Q 49.3 178.1, 49.3 172.1 M 60.6 182.0 Q 64.3 182.0, 66.3 179.5 Q 68.3 177.0, 68.3 172.1 Q 68.3 167.3, 66.3 164.9 Q 64.3 162.4, 60.6 162.4 Q 56.8 162.4, 54.8 164.9 Q 52.8 167.3, 52.8 172.1 Q 52.8 177.1, 54.8 179.5 Q 56.8 182.0, 60.6 182.0 " fill="#FF0000"/>
<path class="atom-1" d="M 75.3 163.7 L 83.7 163.7 L 83.7 165.5 L 75.3 165.5 L 75.3 163.7 " fill="#FF0000"/>
<path class="atom-2" d="M 49.3 22.4 Q 49.3 16.6, 52.2 13.3 Q 55.1 10.0, 60.6 10.0 Q 66.0 10.0, 68.9 13.3 Q 71.8 16.6, 71.8 22.4 Q 71.8 28.4, 68.9 31.8 Q 65.9 35.1, 60.6 35.1 Q 55.2 35.1, 52.2 31.8 Q 49.3 28.4, 49.3 22.4 M 60.6 32.4 Q 64.3 32.4, 66.3 29.9 Q 68.3 27.4, 68.3 22.4 Q 68.3 17.6, 66.3 15.2 Q 64.3 12.8, 60.6 12.8 Q 56.8 12.8, 54.8 15.2 Q 52.8 17.6, 52.8 22.4 Q 52.8 27.4, 54.8 29.9 Q 56.8 32.4, 60.6 32.4 " fill="#FF0000"/>
<path class="atom-4" d="M 222.2 172.1 Q 222.2 166.2, 225.1 163.0 Q 228.0 159.7, 233.4 159.7 Q 238.8 159.7, 241.7 163.0 Q 244.6 166.2, 244.6 172.1 Q 244.6 178.1, 241.7 181.4 Q 238.7 184.8, 233.4 184.8 Q 228.0 184.8, 225.1 181.4 Q 222.2 178.1, 222.2 172.1 M 233.4 182.0 Q 237.1 182.0, 239.1 179.5 Q 241.2 177.0, 241.2 172.1 Q 241.2 167.3, 239.1 164.9 Q 237.1 162.4, 233.4 162.4 Q 229.7 162.4, 227.6 164.9 Q 225.6 167.3, 225.6 172.1 Q 225.6 177.1, 227.6 179.5 Q 229.7 182.0, 233.4 182.0 " fill="#000000"/>
</svg>