<svg xmlns="http://www.w3.org/2000/svg" xmlns:rdkit="http://www.rdkit.org/xml" xmlns:xlink="http://www.w3.org/1999/xlink" version="1.1" baseProfile="full" xml:space="preserve" width="300px" height="200px" viewBox="0 0 300 200">
<!-- END OF HEADER -->
<rect style="opacity:1.0;fill:#FFFFFF;stroke:none" width="300.0" height="200.0" x="0.0" y="0.0"> </rect>
<path class="bond-1 atom-1 atom-2" d="M 110.8,44.9 L 121.0,47.4 L 108.4,98.0 L 99.7,89.6 Z" style="fill:#FF7F7F;fill-rule:evenodd;fill-opacity:1;stroke:#FF7F7F;stroke-width:0.0px;stroke-linecap:butt;stroke-linejoin:miter;stroke-opacity:1;"/>
<path class="bond-2 atom-1 atom-3" d="M 99.7,89.6 L 108.4,98.0 L 61.1,111.6 L 52.4,103.1 Z" style="fill:#FF7F7F;fill-rule:evenodd;fill-opacity:1;stroke:#FF7F7F;stroke-width:0.0px;stroke-linecap:butt;stroke-linejoin:miter;stroke-opacity:1;"/>
<path class="bond-4 atom-3 atom-5" d="M 52.4,103.1 L 61.1,111.6 L 49.9,156.3 L 39.7,153.8 Z" style="fill:#FF7F7F;fill-rule:evenodd;fill-opacity:1;stroke:#FF7F7F;stroke-width:0.0px;stroke-linecap:butt;stroke-linejoin:miter;stroke-opacity:1;"/>
<ellipse cx="104.0" cy="93.8" rx="9.8" ry="9.8" class="atom-1" style="fill:#FF7F7F;fill-rule:evenodd;stroke:#FF7F7F;stroke-width:1.0px;stroke-linecap:butt;stroke-linejoin:miter;stroke-opacity:1"/>
<ellipse cx="127.1" cy="49.6" rx="23.3" ry="14.9" class="atom-2" style="fill:#FF7F7F;fill-rule:evenodd;stroke:#FF7F7F;stroke-width:1.0px;stroke-linecap:butt;stroke-linejoin:miter;stroke-opacity:1"/>
<ellipse cx="56.7" cy="107.4" rx="9.8" ry="9.8" class="atom-3" style="fill:#FF7F7F;fill-rule:evenodd;stroke:#FF7F7F;stroke-width:1.0px;stroke-linecap:butt;stroke-linejoin:miter;stroke-opacity:1"/>
<ellipse cx="48.2" cy="155.2" rx="13.8" ry="10.1" class="atom-5" style="fill:#FF7F7F;fill-rule:evenodd;stroke:#FF7F7F;stroke-width:1.0px;stroke-linecap:butt;stroke-linejoin:miter;stroke-opacity:1"/>
<path class="bond-0 atom-0 atom-1" d="M 139.3,128.0 L 104.0,93.8" style="fill:none;fill-rule:evenodd;stroke:#000000;stroke-width:2.0px;stroke-linecap:butt;stroke-linejoin:miter;stroke-opacity:1"/>
<path class="bond-1 atom-1 atom-2" d="M 104.0,93.8 L 113.8,54.7" style="fill:none;fill-rule:evenodd;stroke:#000000;stroke-width:2.0px;stroke-linecap:butt;stroke-linejoin:miter;stroke-opacity:1"/>
<path class="bond-2 atom-1 atom-3" d="M 104.0,93.8 L 56.7,107.4" style="fill:none;fill-rule:evenodd;stroke:#000000;stroke-width:2.0px;stroke-linecap:butt;stroke-linejoin:miter;stroke-opacity:1"/>
<path class="bond-3 atom-3 atom-4" d="M 60.8,106.2 L 46.4,92.2" style="fill:none;fill-rule:evenodd;stroke:#000000;stroke-width:2.0px;stroke-linecap:butt;stroke-linejoin:miter;stroke-opacity:1"/>
<path class="bond-3 atom-3 atom-4" d="M 46.4,92.2 L 32.0,78.3" style="fill:none;fill-rule:evenodd;stroke:#FF0000;stroke-width:2.0px;stroke-linecap:butt;stroke-linejoin:miter;stroke-opacity:1"/>
<path class="bond-3 atom-3 atom-4" d="M 55.7,111.5 L 41.3,97.5" style="fill:none;fill-rule:evenodd;stroke:#000000;stroke-width:2.0px;stroke-linecap:butt;stroke-linejoin:miter;stroke-opacity:1"/>
<path class="bond-3 atom-3 atom-4" d="M 41.3,97.5 L 26.8,83.6" style="fill:none;fill-rule:evenodd;stroke:#FF0000;stroke-width:2.0px;stroke-linecap:butt;stroke-linejoin:miter;stroke-opacity:1"/>
<path class="bond-4 atom-3 atom-5" d="M 56.7,107.4 L 47.0,146.4" style="fill:none;fill-rule:evenodd;stroke:#000000;stroke-width:2.0px;stroke-linecap:butt;stroke-linejoin:miter;stroke-opacity:1"/>
<path class="bond-5 atom-0 atom-6" d="M 139.3,128.0 L 186.6,114.5" style="fill:none;fill-rule:evenodd;stroke:#000000;stroke-width:2.0px;stroke-linecap:butt;stroke-linejoin:miter;stroke-opacity:1"/>
<path class="bond-6 atom-6 atom-7" d="M 186.6,114.5 L 225.3,144.8" style="fill:none;fill-rule:evenodd;stroke:#000000;stroke-width:2.0px;stroke-linecap:butt;stroke-linejoin:miter;stroke-opacity:1"/>
<path class="bond-6 atom-6 atom-7" d="M 195.4,112.0 L 225.7,135.7" style="fill:none;fill-rule:evenodd;stroke:#000000;stroke-width:2.0px;stroke-linecap:butt;stroke-linejoin:miter;stroke-opacity:1"/>
<path class="bond-7 atom-7 atom-8" d="M 225.3,144.8 L 242.3,133.4" style="fill:none;fill-rule:evenodd;stroke:#000000;stroke-width:2.0px;stroke-linecap:butt;stroke-linejoin:miter;stroke-opacity:1"/>
<path class="bond-7 atom-7 atom-8" d="M 242.3,133.4 L 259.2,122.0" style="fill:none;fill-rule:evenodd;stroke:#0000FF;stroke-width:2.0px;stroke-linecap:butt;stroke-linejoin:miter;stroke-opacity:1"/>
<path class="bond-8 atom-8 atom-9" d="M 263.7,108.7 L 258.1,89.4" style="fill:none;fill-rule:evenodd;stroke:#0000FF;stroke-width:2.0px;stroke-linecap:butt;stroke-linejoin:miter;stroke-opacity:1"/>
<path class="bond-8 atom-8 atom-9" d="M 258.1,89.4 L 252.6,70.1" style="fill:none;fill-rule:evenodd;stroke:#000000;stroke-width:2.0px;stroke-linecap:butt;stroke-linejoin:miter;stroke-opacity:1"/>
<path class="bond-9 atom-9 atom-10" d="M 252.6,70.1 L 235.8,69.5" style="fill:none;fill-rule:evenodd;stroke:#000000;stroke-width:2.0px;stroke-linecap:butt;stroke-linejoin:miter;stroke-opacity:1"/>
<path class="bond-9 atom-9 atom-10" d="M 235.8,69.5 L 219.1,68.9" style="fill:none;fill-rule:evenodd;stroke:#0000FF;stroke-width:2.0px;stroke-linecap:butt;stroke-linejoin:miter;stroke-opacity:1"/>
<path class="bond-9 atom-9 atom-10" d="M 247.0,77.2 L 232.9,76.7" style="fill:none;fill-rule:evenodd;stroke:#000000;stroke-width:2.0px;stroke-linecap:butt;stroke-linejoin:miter;stroke-opacity:1"/>
<path class="bond-9 atom-9 atom-10" d="M 232.9,76.7 L 218.8,76.2" style="fill:none;fill-rule:evenodd;stroke:#0000FF;stroke-width:2.0px;stroke-linecap:butt;stroke-linejoin:miter;stroke-opacity:1"/>
<path class="bond-10 atom-10 atom-6" d="M 200.3,76.9 L 193.5,95.7" style="fill:none;fill-rule:evenodd;stroke:#0000FF;stroke-width:2.0px;stroke-linecap:butt;stroke-linejoin:miter;stroke-opacity:1"/>
<path class="bond-10 atom-10 atom-6" d="M 193.5,95.7 L 186.6,114.5" style="fill:none;fill-rule:evenodd;stroke:#000000;stroke-width:2.0px;stroke-linecap:butt;stroke-linejoin:miter;stroke-opacity:1"/>
<path d="M 137.6,126.3 L 139.3,128.0 L 141.7,127.3" style="fill:none;stroke:#000000;stroke-width:2.0px;stroke-linecap:butt;stroke-linejoin:miter;stroke-opacity:1;"/>
<path d="M 59.1,106.7 L 56.7,107.4 L 56.2,109.3" style="fill:none;stroke:#000000;stroke-width:2.0px;stroke-linecap:butt;stroke-linejoin:miter;stroke-opacity:1;"/>
<path d="M 223.4,143.3 L 225.3,144.8 L 226.2,144.2" style="fill:none;stroke:#000000;stroke-width:2.0px;stroke-linecap:butt;stroke-linejoin:miter;stroke-opacity:1;"/>
<path d="M 252.9,71.0 L 252.6,70.1 L 251.8,70.0" style="fill:none;stroke:#000000;stroke-width:2.0px;stroke-linecap:butt;stroke-linejoin:miter;stroke-opacity:1;"/>
<path class="atom-2" d="M 112.9 39.2 L 117.4 46.5 Q 117.9 47.3, 118.6 48.6 Q 119.3 49.9, 119.4 50.0 L 119.4 39.2 L 121.2 39.2 L 121.2 53.1 L 119.3 53.1 L 114.4 45.0 Q 113.8 44.1, 113.2 43.0 Q 112.6 41.9, 112.5 41.6 L 112.5 53.1 L 110.7 53.1 L 110.7 39.2 L 112.9 39.2 " fill="#000000"/>
<path class="atom-2" d="M 123.8 39.2 L 125.7 39.2 L 125.7 45.1 L 132.9 45.1 L 132.9 39.2 L 134.7 39.2 L 134.7 53.1 L 132.9 53.1 L 132.9 46.7 L 125.7 46.7 L 125.7 53.1 L 123.8 53.1 L 123.8 39.2 " fill="#000000"/>
<path class="atom-2" d="M 141.8 55.2 Q 142.7 55.5, 143.1 56.1 Q 143.6 56.6, 143.6 57.5 Q 143.6 58.3, 143.2 58.9 Q 142.8 59.5, 142.1 59.9 Q 141.4 60.2, 140.4 60.2 Q 139.5 60.2, 138.7 59.9 Q 138.0 59.5, 137.4 58.8 L 138.2 58.0 Q 138.7 58.7, 139.2 58.9 Q 139.7 59.2, 140.4 59.2 Q 141.3 59.2, 141.8 58.7 Q 142.3 58.3, 142.3 57.5 Q 142.3 56.6, 141.8 56.2 Q 141.2 55.8, 140.1 55.8 L 139.4 55.8 L 139.4 54.8 L 140.0 54.8 Q 141.0 54.8, 141.6 54.4 Q 142.1 53.9, 142.1 53.1 Q 142.1 52.5, 141.7 52.2 Q 141.2 51.8, 140.5 51.8 Q 139.7 51.8, 139.2 52.1 Q 138.7 52.3, 138.4 53.0 L 137.5 52.6 Q 137.8 51.8, 138.6 51.3 Q 139.4 50.8, 140.5 50.8 Q 141.8 50.8, 142.6 51.4 Q 143.4 52.0, 143.4 53.1 Q 143.4 53.9, 143.0 54.4 Q 142.6 54.9, 141.8 55.2 " fill="#000000"/>
<path class="atom-2" d="M 137.5 41.7 L 139.9 41.7 L 139.9 39.1 L 141.0 39.1 L 141.0 41.7 L 143.5 41.7 L 143.5 42.6 L 141.0 42.6 L 141.0 45.2 L 139.9 45.2 L 139.9 42.6 L 137.5 42.6 L 137.5 41.7 " fill="#000000"/>
<path class="atom-4" d="M 15.0 73.2 Q 15.0 69.9, 16.7 68.0 Q 18.3 66.1, 21.4 66.1 Q 24.5 66.1, 26.1 68.0 Q 27.8 69.9, 27.8 73.2 Q 27.8 76.6, 26.1 78.5 Q 24.4 80.4, 21.4 80.4 Q 18.3 80.4, 16.7 78.5 Q 15.0 76.6, 15.0 73.2 M 21.4 78.9 Q 23.5 78.9, 24.7 77.4 Q 25.8 76.0, 25.8 73.2 Q 25.8 70.5, 24.7 69.1 Q 23.5 67.7, 21.4 67.7 Q 19.3 67.7, 18.1 69.1 Q 17.0 70.5, 17.0 73.2 Q 17.0 76.0, 18.1 77.4 Q 19.3 78.9, 21.4 78.9 " fill="#FF0000"/>
<path class="atom-5" d="M 38.4 155.1 Q 38.4 151.7, 40.1 149.9 Q 41.7 148.0, 44.8 148.0 Q 47.9 148.0, 49.5 149.9 Q 51.2 151.7, 51.2 155.1 Q 51.2 158.5, 49.5 160.4 Q 47.9 162.3, 44.8 162.3 Q 41.7 162.3, 40.1 160.4 Q 38.4 158.5, 38.4 155.1 M 44.8 160.7 Q 46.9 160.7, 48.1 159.3 Q 49.2 157.9, 49.2 155.1 Q 49.2 152.4, 48.1 151.0 Q 46.9 149.6, 44.8 149.6 Q 42.7 149.6, 41.5 151.0 Q 40.4 152.3, 40.4 155.1 Q 40.4 157.9, 41.5 159.3 Q 42.7 160.7, 44.8 160.7 " fill="#000000"/>
<path class="atom-5" d="M 53.2 150.3 L 57.9 150.3 L 57.9 151.3 L 53.2 151.3 L 53.2 150.3 " fill="#000000"/>
<path class="atom-8" d="M 263.0 110.4 L 267.6 117.7 Q 268.1 118.5, 268.8 119.8 Q 269.5 121.1, 269.6 121.2 L 269.6 110.4 L 271.4 110.4 L 271.4 124.3 L 269.5 124.3 L 264.6 116.2 Q 264.0 115.3, 263.4 114.2 Q 262.8 113.1, 262.6 112.8 L 262.6 124.3 L 260.8 124.3 L 260.8 110.4 L 263.0 110.4 " fill="#0000FF"/>
<path class="atom-8" d="M 274.1 110.4 L 276.0 110.4 L 276.0 116.3 L 283.1 116.3 L 283.1 110.4 L 285.0 110.4 L 285.0 124.3 L 283.1 124.3 L 283.1 117.9 L 276.0 117.9 L 276.0 124.3 L 274.1 124.3 L 274.1 110.4 " fill="#0000FF"/>
<path class="atom-10" d="M 184.6 61.3 L 186.5 61.3 L 186.5 67.3 L 193.6 67.3 L 193.6 61.3 L 195.5 61.3 L 195.5 75.3 L 193.6 75.3 L 193.6 68.8 L 186.5 68.8 L 186.5 75.3 L 184.6 75.3 L 184.6 61.3 " fill="#0000FF"/>
<path class="atom-10" d="M 200.4 61.3 L 205.0 68.7 Q 205.4 69.4, 206.1 70.8 Q 206.9 72.1, 206.9 72.2 L 206.9 61.3 L 208.7 61.3 L 208.7 75.3 L 206.8 75.3 L 201.9 67.2 Q 201.4 66.3, 200.8 65.2 Q 200.2 64.1, 200.0 63.8 L 200.0 75.3 L 198.2 75.3 L 198.2 61.3 L 200.4 61.3 " fill="#0000FF"/>
<path class="atom-10" d="M 211.4 63.9 L 213.9 63.9 L 213.9 61.3 L 214.9 61.3 L 214.9 63.9 L 217.5 63.9 L 217.5 64.8 L 214.9 64.8 L 214.9 67.4 L 213.9 67.4 L 213.9 64.8 L 211.4 64.8 L 211.4 63.9 " fill="#0000FF"/>
</svg>