<svg xmlns="http://www.w3.org/2000/svg" xmlns:rdkit="http://www.rdkit.org/xml" xmlns:xlink="http://www.w3.org/1999/xlink" version="1.1" baseProfile="full" xml:space="preserve" width="300px" height="200px" viewBox="0 0 300 200">
<!-- END OF HEADER -->
<rect style="opacity:1.0;fill:#FFFFFF;stroke:none" width="300.0" height="200.0" x="0.0" y="0.0"> </rect>
<path class="bond-0 atom-0 atom-1" d="M 83.7,71.1 L 79.8,84.4 L 28.4,96.7 L 25.6,85.0 Z" style="fill:#FF7F7F;fill-rule:evenodd;fill-opacity:1;stroke:#FF7F7F;stroke-width:0.0px;stroke-linecap:butt;stroke-linejoin:miter;stroke-opacity:1;"/>
<path class="bond-2 atom-0 atom-3" d="M 83.7,71.1 L 127.3,117.0 L 113.8,120.2 L 79.8,84.4 Z" style="fill:#FF7F7F;fill-rule:evenodd;fill-opacity:1;stroke:#FF7F7F;stroke-width:0.0px;stroke-linecap:butt;stroke-linejoin:miter;stroke-opacity:1;"/>
<path class="bond-9 atom-3 atom-10" d="M 127.3,117.0 L 110.3,174.4 L 98.8,171.0 L 113.8,120.2 Z" style="fill:#FF7F7F;fill-rule:evenodd;fill-opacity:1;stroke:#FF7F7F;stroke-width:0.0px;stroke-linecap:butt;stroke-linejoin:miter;stroke-opacity:1;"/>
<ellipse cx="81.8" cy="77.7" rx="11.3" ry="11.3" class="atom-0" style="fill:#FF7F7F;fill-rule:evenodd;stroke:#FF7F7F;stroke-width:1.0px;stroke-linecap:butt;stroke-linejoin:miter;stroke-opacity:1"/>
<ellipse cx="30.8" cy="91.0" rx="15.8" ry="11.6" class="atom-1" style="fill:#FF7F7F;fill-rule:evenodd;stroke:#FF7F7F;stroke-width:1.0px;stroke-linecap:butt;stroke-linejoin:miter;stroke-opacity:1"/>
<ellipse cx="120.6" cy="118.6" rx="11.3" ry="11.3" class="atom-3" style="fill:#FF7F7F;fill-rule:evenodd;stroke:#FF7F7F;stroke-width:1.0px;stroke-linecap:butt;stroke-linejoin:miter;stroke-opacity:1"/>
<ellipse cx="104.6" cy="172.8" rx="11.3" ry="11.6" class="atom-10" style="fill:#FF7F7F;fill-rule:evenodd;stroke:#FF7F7F;stroke-width:1.0px;stroke-linecap:butt;stroke-linejoin:miter;stroke-opacity:1"/>
<path class="bond-0 atom-0 atom-1" d="M 81.8,77.7 L 43.9,86.8" style="fill:none;fill-rule:evenodd;stroke:#000000;stroke-width:2.0px;stroke-linecap:butt;stroke-linejoin:miter;stroke-opacity:1"/>
<path class="bond-1 atom-0 atom-2" d="M 85.1,81.3 L 92.0,58.2" style="fill:none;fill-rule:evenodd;stroke:#000000;stroke-width:2.0px;stroke-linecap:butt;stroke-linejoin:miter;stroke-opacity:1"/>
<path class="bond-1 atom-0 atom-2" d="M 92.0,58.2 L 98.8,35.1" style="fill:none;fill-rule:evenodd;stroke:#FF0000;stroke-width:2.0px;stroke-linecap:butt;stroke-linejoin:miter;stroke-opacity:1"/>
<path class="bond-1 atom-0 atom-2" d="M 77.0,78.9 L 83.9,55.8" style="fill:none;fill-rule:evenodd;stroke:#000000;stroke-width:2.0px;stroke-linecap:butt;stroke-linejoin:miter;stroke-opacity:1"/>
<path class="bond-1 atom-0 atom-2" d="M 83.9,55.8 L 90.7,32.7" style="fill:none;fill-rule:evenodd;stroke:#FF0000;stroke-width:2.0px;stroke-linecap:butt;stroke-linejoin:miter;stroke-opacity:1"/>
<path class="bond-2 atom-0 atom-3" d="M 81.8,77.7 L 120.6,118.6" style="fill:none;fill-rule:evenodd;stroke:#000000;stroke-width:2.0px;stroke-linecap:butt;stroke-linejoin:miter;stroke-opacity:1"/>
<path class="bond-3 atom-3 atom-4" d="M 120.6,118.6 L 175.4,105.5" style="fill:none;fill-rule:evenodd;stroke:#000000;stroke-width:2.0px;stroke-linecap:butt;stroke-linejoin:miter;stroke-opacity:1"/>
<path class="bond-4 atom-4 atom-5" d="M 175.4,105.5 L 191.4,51.4" style="fill:none;fill-rule:evenodd;stroke:#000000;stroke-width:2.0px;stroke-linecap:butt;stroke-linejoin:miter;stroke-opacity:1"/>
<path class="bond-4 atom-4 atom-5" d="M 184.9,103.2 L 198.1,58.5" style="fill:none;fill-rule:evenodd;stroke:#000000;stroke-width:2.0px;stroke-linecap:butt;stroke-linejoin:miter;stroke-opacity:1"/>
<path class="bond-5 atom-5 atom-6" d="M 191.4,51.4 L 246.2,38.3" style="fill:none;fill-rule:evenodd;stroke:#000000;stroke-width:2.0px;stroke-linecap:butt;stroke-linejoin:miter;stroke-opacity:1"/>
<path class="bond-6 atom-6 atom-7" d="M 246.2,38.3 L 285.0,79.2" style="fill:none;fill-rule:evenodd;stroke:#000000;stroke-width:2.0px;stroke-linecap:butt;stroke-linejoin:miter;stroke-opacity:1"/>
<path class="bond-6 atom-6 atom-7" d="M 243.4,47.6 L 275.5,81.4" style="fill:none;fill-rule:evenodd;stroke:#000000;stroke-width:2.0px;stroke-linecap:butt;stroke-linejoin:miter;stroke-opacity:1"/>
<path class="bond-7 atom-7 atom-8" d="M 285.0,79.2 L 269.0,133.2" style="fill:none;fill-rule:evenodd;stroke:#000000;stroke-width:2.0px;stroke-linecap:butt;stroke-linejoin:miter;stroke-opacity:1"/>
<path class="bond-8 atom-8 atom-9" d="M 269.0,133.2 L 214.2,146.4" style="fill:none;fill-rule:evenodd;stroke:#000000;stroke-width:2.0px;stroke-linecap:butt;stroke-linejoin:miter;stroke-opacity:1"/>
<path class="bond-8 atom-8 atom-9" d="M 262.3,126.1 L 217.0,137.0" style="fill:none;fill-rule:evenodd;stroke:#000000;stroke-width:2.0px;stroke-linecap:butt;stroke-linejoin:miter;stroke-opacity:1"/>
<path class="bond-9 atom-3 atom-10" d="M 117.2,115.1 L 103.5,161.5" style="fill:none;fill-rule:evenodd;stroke:#000000;stroke-width:2.0px;stroke-linecap:butt;stroke-linejoin:miter;stroke-opacity:1"/>
<path class="bond-9 atom-3 atom-10" d="M 125.3,117.5 L 111.6,163.9" style="fill:none;fill-rule:evenodd;stroke:#000000;stroke-width:2.0px;stroke-linecap:butt;stroke-linejoin:miter;stroke-opacity:1"/>
<path class="bond-10 atom-9 atom-4" d="M 214.2,146.4 L 175.4,105.5" style="fill:none;fill-rule:evenodd;stroke:#000000;stroke-width:2.0px;stroke-linecap:butt;stroke-linejoin:miter;stroke-opacity:1"/>
<path d="M 79.9,78.2 L 81.8,77.7 L 83.7,79.8" style="fill:none;stroke:#000000;stroke-width:2.0px;stroke-linecap:butt;stroke-linejoin:miter;stroke-opacity:1;"/>
<path d="M 118.6,116.6 L 120.6,118.6 L 123.3,118.0" style="fill:none;stroke:#000000;stroke-width:2.0px;stroke-linecap:butt;stroke-linejoin:miter;stroke-opacity:1;"/>
<path d="M 190.6,54.1 L 191.4,51.4 L 194.1,50.8" style="fill:none;stroke:#000000;stroke-width:2.0px;stroke-linecap:butt;stroke-linejoin:miter;stroke-opacity:1;"/>
<path d="M 243.5,38.9 L 246.2,38.3 L 248.1,40.3" style="fill:none;stroke:#000000;stroke-width:2.0px;stroke-linecap:butt;stroke-linejoin:miter;stroke-opacity:1;"/>
<path d="M 283.1,77.1 L 285.0,79.2 L 284.2,81.9" style="fill:none;stroke:#000000;stroke-width:2.0px;stroke-linecap:butt;stroke-linejoin:miter;stroke-opacity:1;"/>
<path d="M 269.8,130.5 L 269.0,133.2 L 266.2,133.9" style="fill:none;stroke:#000000;stroke-width:2.0px;stroke-linecap:butt;stroke-linejoin:miter;stroke-opacity:1;"/>
<path d="M 216.9,145.7 L 214.2,146.4 L 212.2,144.3" style="fill:none;stroke:#000000;stroke-width:2.0px;stroke-linecap:butt;stroke-linejoin:miter;stroke-opacity:1;"/>
<path class="atom-1" d="M 19.6 90.9 Q 19.6 87.1, 21.5 85.0 Q 23.4 82.8, 27.0 82.8 Q 30.5 82.8, 32.4 85.0 Q 34.3 87.1, 34.3 90.9 Q 34.3 94.8, 32.4 97.0 Q 30.5 99.2, 27.0 99.2 Q 23.4 99.2, 21.5 97.0 Q 19.6 94.8, 19.6 90.9 M 27.0 97.4 Q 29.4 97.4, 30.7 95.8 Q 32.0 94.1, 32.0 90.9 Q 32.0 87.8, 30.7 86.2 Q 29.4 84.6, 27.0 84.6 Q 24.5 84.6, 23.2 86.2 Q 21.9 87.8, 21.9 90.9 Q 21.9 94.2, 23.2 95.8 Q 24.5 97.4, 27.0 97.4 " fill="#000000"/>
<path class="atom-1" d="M 36.6 85.4 L 42.0 85.4 L 42.0 86.6 L 36.6 86.6 L 36.6 85.4 " fill="#000000"/>
<path class="atom-2" d="M 90.5 23.7 Q 90.5 19.9, 92.4 17.8 Q 94.2 15.6, 97.8 15.6 Q 101.3 15.6, 103.2 17.8 Q 105.1 19.9, 105.1 23.7 Q 105.1 27.6, 103.2 29.8 Q 101.3 32.0, 97.8 32.0 Q 94.3 32.0, 92.4 29.8 Q 90.5 27.6, 90.5 23.7 M 97.8 30.2 Q 100.2 30.2, 101.5 28.6 Q 102.9 26.9, 102.9 23.7 Q 102.9 20.6, 101.5 19.0 Q 100.2 17.4, 97.8 17.4 Q 95.3 17.4, 94.0 19.0 Q 92.7 20.6, 92.7 23.7 Q 92.7 27.0, 94.0 28.6 Q 95.3 30.2, 97.8 30.2 " fill="#FF0000"/>
<path class="atom-10" d="M 97.2 172.7 Q 97.2 168.9, 99.1 166.7 Q 101.0 164.6, 104.6 164.6 Q 108.1 164.6, 110.0 166.7 Q 111.9 168.9, 111.9 172.7 Q 111.9 176.6, 110.0 178.8 Q 108.1 181.0, 104.6 181.0 Q 101.0 181.0, 99.1 178.8 Q 97.2 176.6, 97.2 172.7 M 104.6 179.2 Q 107.0 179.2, 108.3 177.6 Q 109.6 175.9, 109.6 172.7 Q 109.6 169.6, 108.3 168.0 Q 107.0 166.4, 104.6 166.4 Q 102.1 166.4, 100.8 168.0 Q 99.5 169.6, 99.5 172.7 Q 99.5 175.9, 100.8 177.6 Q 102.1 179.2, 104.6 179.2 " fill="#000000"/>
</svg>