<svg xmlns="http://www.w3.org/2000/svg" xmlns:rdkit="http://www.rdkit.org/xml" xmlns:xlink="http://www.w3.org/1999/xlink" version="1.1" baseProfile="full" xml:space="preserve" width="300px" height="200px" viewBox="0 0 300 200">
<!-- END OF HEADER -->
<rect style="opacity:1.0;fill:#FFFFFF;stroke:none" width="300.0" height="200.0" x="0.0" y="0.0"> </rect>
<path class="bond-0 atom-0 atom-1" d="M 102.0,88.0 L 112.6,106.4 L 72.1,176.7 L 56.1,167.4 Z" style="fill:#FF7F7F;fill-rule:evenodd;fill-opacity:1;stroke:#FF7F7F;stroke-width:0.0px;stroke-linecap:butt;stroke-linejoin:miter;stroke-opacity:1;"/>
<path class="bond-1 atom-0 atom-2" d="M 199.1,88.0 L 188.4,106.4 L 112.6,106.4 L 102.0,88.0 Z" style="fill:#FF7F7F;fill-rule:evenodd;fill-opacity:1;stroke:#FF7F7F;stroke-width:0.0px;stroke-linecap:butt;stroke-linejoin:miter;stroke-opacity:1;"/>
<path class="bond-3 atom-2 atom-4" d="M 199.1,88.0 L 244.9,167.4 L 229.0,176.7 L 188.4,106.4 Z" style="fill:#FF7F7F;fill-rule:evenodd;fill-opacity:1;stroke:#FF7F7F;stroke-width:0.0px;stroke-linecap:butt;stroke-linejoin:miter;stroke-opacity:1;"/>
<ellipse cx="107.3" cy="97.2" rx="17.3" ry="17.3" class="atom-0" style="fill:#FF7F7F;fill-rule:evenodd;stroke:#FF7F7F;stroke-width:1.0px;stroke-linecap:butt;stroke-linejoin:miter;stroke-opacity:1"/>
<ellipse cx="70.0" cy="172.2" rx="24.3" ry="17.8" class="atom-1" style="fill:#FF7F7F;fill-rule:evenodd;stroke:#FF7F7F;stroke-width:1.0px;stroke-linecap:butt;stroke-linejoin:miter;stroke-opacity:1"/>
<ellipse cx="193.7" cy="97.2" rx="17.3" ry="17.3" class="atom-2" style="fill:#FF7F7F;fill-rule:evenodd;stroke:#FF7F7F;stroke-width:1.0px;stroke-linecap:butt;stroke-linejoin:miter;stroke-opacity:1"/>
<ellipse cx="236.9" cy="172.2" rx="17.3" ry="17.8" class="atom-4" style="fill:#FF7F7F;fill-rule:evenodd;stroke:#FF7F7F;stroke-width:1.0px;stroke-linecap:butt;stroke-linejoin:miter;stroke-opacity:1"/>
<path class="bond-0 atom-0 atom-1" d="M 107.3,97.2 L 72.9,156.8" style="fill:none;fill-rule:evenodd;stroke:#000000;stroke-width:2.0px;stroke-linecap:butt;stroke-linejoin:miter;stroke-opacity:1"/>
<path class="bond-1 atom-0 atom-2" d="M 107.3,97.2 L 193.7,97.2" style="fill:none;fill-rule:evenodd;stroke:#000000;stroke-width:2.0px;stroke-linecap:butt;stroke-linejoin:miter;stroke-opacity:1"/>
<path class="bond-2 atom-2 atom-3" d="M 193.7,97.2 L 236.9,22.4" style="fill:none;fill-rule:evenodd;stroke:#000000;stroke-width:2.0px;stroke-linecap:butt;stroke-linejoin:miter;stroke-opacity:1"/>
<path class="bond-3 atom-2 atom-4" d="M 186.3,97.2 L 222.5,160.1" style="fill:none;fill-rule:evenodd;stroke:#000000;stroke-width:2.0px;stroke-linecap:butt;stroke-linejoin:miter;stroke-opacity:1"/>
<path class="bond-3 atom-2 atom-4" d="M 197.5,90.7 L 233.8,153.6" style="fill:none;fill-rule:evenodd;stroke:#000000;stroke-width:2.0px;stroke-linecap:butt;stroke-linejoin:miter;stroke-opacity:1"/>
<path class="bond-4 atom-0 atom-5" d="M 114.8,97.2 L 96.8,66.0" style="fill:none;fill-rule:evenodd;stroke:#000000;stroke-width:2.0px;stroke-linecap:butt;stroke-linejoin:miter;stroke-opacity:1"/>
<path class="bond-4 atom-0 atom-5" d="M 96.8,66.0 L 78.7,34.7" style="fill:none;fill-rule:evenodd;stroke:#FF0000;stroke-width:2.0px;stroke-linecap:butt;stroke-linejoin:miter;stroke-opacity:1"/>
<path class="bond-4 atom-0 atom-5" d="M 103.6,103.7 L 85.5,72.5" style="fill:none;fill-rule:evenodd;stroke:#000000;stroke-width:2.0px;stroke-linecap:butt;stroke-linejoin:miter;stroke-opacity:1"/>
<path class="bond-4 atom-0 atom-5" d="M 85.5,72.5 L 67.5,41.2" style="fill:none;fill-rule:evenodd;stroke:#FF0000;stroke-width:2.0px;stroke-linecap:butt;stroke-linejoin:miter;stroke-opacity:1"/>
<path d="M 105.6,100.2 L 107.3,97.2 L 111.6,97.2" style="fill:none;stroke:#000000;stroke-width:2.0px;stroke-linecap:butt;stroke-linejoin:miter;stroke-opacity:1;"/>
<path d="M 189.4,97.2 L 193.7,97.2 L 195.9,93.5" style="fill:none;stroke:#000000;stroke-width:2.0px;stroke-linecap:butt;stroke-linejoin:miter;stroke-opacity:1;"/>
<path class="atom-1" d="M 52.9 172.1 Q 52.9 166.2, 55.8 163.0 Q 58.7 159.7, 64.1 159.7 Q 69.5 159.7, 72.4 163.0 Q 75.4 166.2, 75.4 172.1 Q 75.4 178.1, 72.4 181.4 Q 69.5 184.8, 64.1 184.8 Q 58.7 184.8, 55.8 181.4 Q 52.9 178.1, 52.9 172.1 M 64.1 182.0 Q 67.9 182.0, 69.9 179.5 Q 71.9 177.0, 71.9 172.1 Q 71.9 167.3, 69.9 164.9 Q 67.9 162.4, 64.1 162.4 Q 60.4 162.4, 58.3 164.9 Q 56.3 167.3, 56.3 172.1 Q 56.3 177.1, 58.3 179.5 Q 60.4 182.0, 64.1 182.0 " fill="#000000"/>
<path class="atom-1" d="M 78.8 163.7 L 87.2 163.7 L 87.2 165.5 L 78.8 165.5 L 78.8 163.7 " fill="#000000"/>
<path class="atom-4" d="M 225.7 172.1 Q 225.7 166.2, 228.6 163.0 Q 231.5 159.7, 236.9 159.7 Q 242.4 159.7, 245.3 163.0 Q 248.2 166.2, 248.2 172.1 Q 248.2 178.1, 245.2 181.4 Q 242.3 184.8, 236.9 184.8 Q 231.5 184.8, 228.6 181.4 Q 225.7 178.1, 225.7 172.1 M 236.9 182.0 Q 240.7 182.0, 242.7 179.5 Q 244.7 177.0, 244.7 172.1 Q 244.7 167.3, 242.7 164.9 Q 240.7 162.4, 236.9 162.4 Q 233.2 162.4, 231.2 164.9 Q 229.2 167.3, 229.2 172.1 Q 229.2 177.1, 231.2 179.5 Q 233.2 182.0, 236.9 182.0 " fill="#000000"/>
<path class="atom-5" d="M 52.9 22.4 Q 52.9 16.6, 55.8 13.3 Q 58.7 10.0, 64.1 10.0 Q 69.5 10.0, 72.4 13.3 Q 75.4 16.6, 75.4 22.4 Q 75.4 28.4, 72.4 31.8 Q 69.5 35.1, 64.1 35.1 Q 58.7 35.1, 55.8 31.8 Q 52.9 28.4, 52.9 22.4 M 64.1 32.4 Q 67.9 32.4, 69.9 29.9 Q 71.9 27.4, 71.9 22.4 Q 71.9 17.6, 69.9 15.2 Q 67.9 12.8, 64.1 12.8 Q 60.4 12.8, 58.3 15.2 Q 56.3 17.6, 56.3 22.4 Q 56.3 27.4, 58.3 29.9 Q 60.4 32.4, 64.1 32.4 " fill="#FF0000"/>
</svg>