<svg xmlns="http://www.w3.org/2000/svg" xmlns:rdkit="http://www.rdkit.org/xml" xmlns:xlink="http://www.w3.org/1999/xlink" version="1.1" baseProfile="full" xml:space="preserve" width="600px" height="100px" viewBox="0 0 600 100">
<!-- END OF HEADER -->
<rect style="opacity:1.0;fill:#FFFFFF;stroke:none" width="600.0" height="100.0" x="0.0" y="0.0"> </rect>
<path class="bond-0 atom-0 atom-1" d="M 123.9,23.2 L 121.0,34.6" style="fill:none;fill-rule:evenodd;stroke:#0000FF;stroke-width:2.0px;stroke-linecap:butt;stroke-linejoin:miter;stroke-opacity:1"/>
<path class="bond-0 atom-0 atom-1" d="M 121.0,34.6 L 118.2,46.0" style="fill:none;fill-rule:evenodd;stroke:#000000;stroke-width:2.0px;stroke-linecap:butt;stroke-linejoin:miter;stroke-opacity:1"/>
<path class="bond-1 atom-1 atom-2" d="M 118.2,46.0 L 138.8,65.9" style="fill:none;fill-rule:evenodd;stroke:#000000;stroke-width:2.0px;stroke-linecap:butt;stroke-linejoin:miter;stroke-opacity:1"/>
<path class="bond-2 atom-2 atom-3" d="M 138.8,65.9 L 166.4,58.0" style="fill:none;fill-rule:evenodd;stroke:#000000;stroke-width:2.0px;stroke-linecap:butt;stroke-linejoin:miter;stroke-opacity:1"/>
<path class="bond-3 atom-3 atom-4" d="M 166.4,58.0 L 188.9,75.7" style="fill:none;fill-rule:evenodd;stroke:#000000;stroke-width:2.0px;stroke-linecap:butt;stroke-linejoin:miter;stroke-opacity:1"/>
<path class="bond-3 atom-3 atom-4" d="M 171.5,56.6 L 189.1,70.4" style="fill:none;fill-rule:evenodd;stroke:#000000;stroke-width:2.0px;stroke-linecap:butt;stroke-linejoin:miter;stroke-opacity:1"/>
<path class="bond-4 atom-4 atom-5" d="M 188.9,75.7 L 198.8,69.1" style="fill:none;fill-rule:evenodd;stroke:#000000;stroke-width:2.0px;stroke-linecap:butt;stroke-linejoin:miter;stroke-opacity:1"/>
<path class="bond-4 atom-4 atom-5" d="M 198.8,69.1 L 208.7,62.4" style="fill:none;fill-rule:evenodd;stroke:#0000FF;stroke-width:2.0px;stroke-linecap:butt;stroke-linejoin:miter;stroke-opacity:1"/>
<path class="bond-5 atom-5 atom-6" d="M 211.3,54.7 L 208.1,43.4" style="fill:none;fill-rule:evenodd;stroke:#0000FF;stroke-width:2.0px;stroke-linecap:butt;stroke-linejoin:miter;stroke-opacity:1"/>
<path class="bond-5 atom-5 atom-6" d="M 208.1,43.4 L 204.9,32.1" style="fill:none;fill-rule:evenodd;stroke:#000000;stroke-width:2.0px;stroke-linecap:butt;stroke-linejoin:miter;stroke-opacity:1"/>
<path class="bond-6 atom-6 atom-7" d="M 204.9,32.1 L 195.1,31.8" style="fill:none;fill-rule:evenodd;stroke:#000000;stroke-width:2.0px;stroke-linecap:butt;stroke-linejoin:miter;stroke-opacity:1"/>
<path class="bond-6 atom-6 atom-7" d="M 195.1,31.8 L 185.3,31.4" style="fill:none;fill-rule:evenodd;stroke:#0000FF;stroke-width:2.0px;stroke-linecap:butt;stroke-linejoin:miter;stroke-opacity:1"/>
<path class="bond-6 atom-6 atom-7" d="M 201.6,36.3 L 193.4,36.0" style="fill:none;fill-rule:evenodd;stroke:#000000;stroke-width:2.0px;stroke-linecap:butt;stroke-linejoin:miter;stroke-opacity:1"/>
<path class="bond-6 atom-6 atom-7" d="M 193.4,36.0 L 185.1,35.7" style="fill:none;fill-rule:evenodd;stroke:#0000FF;stroke-width:2.0px;stroke-linecap:butt;stroke-linejoin:miter;stroke-opacity:1"/>
<path class="bond-7 atom-1 atom-8" d="M 118.2,46.0 L 90.6,53.9" style="fill:none;fill-rule:evenodd;stroke:#000000;stroke-width:2.0px;stroke-linecap:butt;stroke-linejoin:miter;stroke-opacity:1"/>
<path class="bond-8 atom-8 atom-9" d="M 93.0,53.2 L 84.6,45.1" style="fill:none;fill-rule:evenodd;stroke:#000000;stroke-width:2.0px;stroke-linecap:butt;stroke-linejoin:miter;stroke-opacity:1"/>
<path class="bond-8 atom-8 atom-9" d="M 84.6,45.1 L 76.1,36.9" style="fill:none;fill-rule:evenodd;stroke:#FF0000;stroke-width:2.0px;stroke-linecap:butt;stroke-linejoin:miter;stroke-opacity:1"/>
<path class="bond-8 atom-8 atom-9" d="M 90.0,56.3 L 81.6,48.1" style="fill:none;fill-rule:evenodd;stroke:#000000;stroke-width:2.0px;stroke-linecap:butt;stroke-linejoin:miter;stroke-opacity:1"/>
<path class="bond-8 atom-8 atom-9" d="M 81.6,48.1 L 73.2,40.0" style="fill:none;fill-rule:evenodd;stroke:#FF0000;stroke-width:2.0px;stroke-linecap:butt;stroke-linejoin:miter;stroke-opacity:1"/>
<path class="bond-9 atom-8 atom-10" d="M 90.6,53.9 L 87.7,65.3" style="fill:none;fill-rule:evenodd;stroke:#000000;stroke-width:2.0px;stroke-linecap:butt;stroke-linejoin:miter;stroke-opacity:1"/>
<path class="bond-9 atom-8 atom-10" d="M 87.7,65.3 L 84.9,76.6" style="fill:none;fill-rule:evenodd;stroke:#FF0000;stroke-width:2.0px;stroke-linecap:butt;stroke-linejoin:miter;stroke-opacity:1"/>
<path class="bond-10 atom-7 atom-3" d="M 174.4,36.1 L 170.4,47.1" style="fill:none;fill-rule:evenodd;stroke:#0000FF;stroke-width:2.0px;stroke-linecap:butt;stroke-linejoin:miter;stroke-opacity:1"/>
<path class="bond-10 atom-7 atom-3" d="M 170.4,47.1 L 166.4,58.0" style="fill:none;fill-rule:evenodd;stroke:#000000;stroke-width:2.0px;stroke-linecap:butt;stroke-linejoin:miter;stroke-opacity:1"/>
<path d="M 137.8,64.9 L 138.8,65.9 L 140.2,65.5" style="fill:none;stroke:#000000;stroke-width:2.0px;stroke-linecap:butt;stroke-linejoin:miter;stroke-opacity:1;"/>
<path d="M 187.8,74.8 L 188.9,75.7 L 189.4,75.4" style="fill:none;stroke:#000000;stroke-width:2.0px;stroke-linecap:butt;stroke-linejoin:miter;stroke-opacity:1;"/>
<path d="M 205.0,32.7 L 204.9,32.1 L 204.4,32.1" style="fill:none;stroke:#000000;stroke-width:2.0px;stroke-linecap:butt;stroke-linejoin:miter;stroke-opacity:1;"/>
<path d="M 92.0,53.5 L 90.6,53.9 L 90.5,54.4" style="fill:none;stroke:#000000;stroke-width:2.0px;stroke-linecap:butt;stroke-linejoin:miter;stroke-opacity:1;"/>
<path class="atom-0" d="M 123.3 14.1 L 126.0 18.4 Q 126.3 18.8, 126.7 19.6 Q 127.1 20.4, 127.1 20.4 L 127.1 14.1 L 128.2 14.1 L 128.2 22.2 L 127.1 22.2 L 124.2 17.5 Q 123.9 17.0, 123.5 16.3 Q 123.2 15.7, 123.1 15.5 L 123.1 22.2 L 122.0 22.2 L 122.0 14.1 L 123.3 14.1 " fill="#0000FF"/>
<path class="atom-0" d="M 129.7 14.1 L 130.8 14.1 L 130.8 17.6 L 135.0 17.6 L 135.0 14.1 L 136.1 14.1 L 136.1 22.2 L 135.0 22.2 L 135.0 18.5 L 130.8 18.5 L 130.8 22.2 L 129.7 22.2 L 129.7 14.1 " fill="#0000FF"/>
<path class="atom-0" d="M 140.2 23.5 Q 140.8 23.6, 141.0 24.0 Q 141.3 24.3, 141.3 24.8 Q 141.3 25.3, 141.0 25.6 Q 140.8 26.0, 140.4 26.2 Q 140.0 26.4, 139.4 26.4 Q 138.9 26.4, 138.4 26.2 Q 138.0 26.0, 137.7 25.6 L 138.1 25.1 Q 138.4 25.5, 138.7 25.6 Q 139.0 25.8, 139.4 25.8 Q 139.9 25.8, 140.2 25.5 Q 140.5 25.2, 140.5 24.8 Q 140.5 24.3, 140.2 24.0 Q 139.9 23.8, 139.2 23.8 L 138.8 23.8 L 138.8 23.2 L 139.2 23.2 Q 139.8 23.2, 140.1 23.0 Q 140.4 22.7, 140.4 22.2 Q 140.4 21.9, 140.1 21.7 Q 139.9 21.5, 139.4 21.5 Q 139.0 21.5, 138.7 21.6 Q 138.4 21.8, 138.2 22.2 L 137.7 21.9 Q 137.9 21.5, 138.3 21.2 Q 138.8 20.9, 139.4 20.9 Q 140.2 20.9, 140.7 21.2 Q 141.1 21.6, 141.1 22.2 Q 141.1 22.7, 140.9 23.0 Q 140.7 23.3, 140.2 23.5 " fill="#0000FF"/>
<path class="atom-0" d="M 137.7 15.6 L 139.1 15.6 L 139.1 14.1 L 139.8 14.1 L 139.8 15.6 L 141.2 15.6 L 141.2 16.1 L 139.8 16.1 L 139.8 17.6 L 139.1 17.6 L 139.1 16.1 L 137.7 16.1 L 137.7 15.6 " fill="#0000FF"/>
<path class="atom-5" d="M 210.9 55.6 L 213.6 59.9 Q 213.9 60.4, 214.3 61.1 Q 214.7 61.9, 214.7 61.9 L 214.7 55.6 L 215.8 55.6 L 215.8 63.8 L 214.7 63.8 L 211.8 59.1 Q 211.5 58.5, 211.2 57.9 Q 210.8 57.2, 210.7 57.0 L 210.7 63.8 L 209.7 63.8 L 209.7 55.6 L 210.9 55.6 " fill="#0000FF"/>
<path class="atom-5" d="M 217.4 55.6 L 218.5 55.6 L 218.5 59.1 L 222.6 59.1 L 222.6 55.6 L 223.8 55.6 L 223.8 63.8 L 222.6 63.8 L 222.6 60.0 L 218.5 60.0 L 218.5 63.8 L 217.4 63.8 L 217.4 55.6 " fill="#0000FF"/>
<path class="atom-7" d="M 165.2 27.0 L 166.3 27.0 L 166.3 30.5 L 170.4 30.5 L 170.4 27.0 L 171.5 27.0 L 171.5 35.2 L 170.4 35.2 L 170.4 31.4 L 166.3 31.4 L 166.3 35.2 L 165.2 35.2 L 165.2 27.0 " fill="#0000FF"/>
<path class="atom-7" d="M 174.4 27.0 L 177.1 31.3 Q 177.3 31.8, 177.7 32.5 Q 178.2 33.3, 178.2 33.3 L 178.2 27.0 L 179.3 27.0 L 179.3 35.2 L 178.2 35.2 L 175.3 30.5 Q 175.0 29.9, 174.6 29.3 Q 174.3 28.6, 174.2 28.4 L 174.2 35.2 L 173.1 35.2 L 173.1 27.0 L 174.4 27.0 " fill="#0000FF"/>
<path class="atom-7" d="M 180.8 28.5 L 182.2 28.5 L 182.2 27.0 L 182.9 27.0 L 182.9 28.5 L 184.4 28.5 L 184.4 29.0 L 182.9 29.0 L 182.9 30.6 L 182.2 30.6 L 182.2 29.0 L 180.8 29.0 L 180.8 28.5 " fill="#0000FF"/>
<path class="atom-9" d="M 66.2 34.0 Q 66.2 32.0, 67.2 30.9 Q 68.2 29.8, 70.0 29.8 Q 71.8 29.8, 72.7 30.9 Q 73.7 32.0, 73.7 34.0 Q 73.7 35.9, 72.7 37.1 Q 71.8 38.2, 70.0 38.2 Q 68.2 38.2, 67.2 37.1 Q 66.2 35.9, 66.2 34.0 M 70.0 37.3 Q 71.2 37.3, 71.9 36.4 Q 72.6 35.6, 72.6 34.0 Q 72.6 32.4, 71.9 31.6 Q 71.2 30.8, 70.0 30.8 Q 68.7 30.8, 68.1 31.6 Q 67.4 32.4, 67.4 34.0 Q 67.4 35.6, 68.1 36.4 Q 68.7 37.3, 70.0 37.3 " fill="#FF0000"/>
<path class="atom-10" d="M 79.9 81.7 Q 79.9 79.8, 80.9 78.7 Q 81.8 77.6, 83.6 77.6 Q 85.4 77.6, 86.4 78.7 Q 87.4 79.8, 87.4 81.7 Q 87.4 83.7, 86.4 84.8 Q 85.4 85.9, 83.6 85.9 Q 81.8 85.9, 80.9 84.8 Q 79.9 83.7, 79.9 81.7 M 83.6 85.0 Q 84.9 85.0, 85.5 84.2 Q 86.2 83.4, 86.2 81.7 Q 86.2 80.1, 85.5 79.3 Q 84.9 78.5, 83.6 78.5 Q 82.4 78.5, 81.7 79.3 Q 81.1 80.1, 81.1 81.7 Q 81.1 83.4, 81.7 84.2 Q 82.4 85.0, 83.6 85.0 " fill="#FF0000"/>
<path class="atom-10" d="M 88.5 78.9 L 91.3 78.9 L 91.3 79.5 L 88.5 79.5 L 88.5 78.9 " fill="#FF0000"/>
<path class="bond-11 atom-11 atom-12" d="M 352.5,52.1 L 342.5,52.1" style="fill:none;fill-rule:evenodd;stroke:#FF0000;stroke-width:2.0px;stroke-linecap:butt;stroke-linejoin:miter;stroke-opacity:1"/>
<path class="bond-11 atom-11 atom-12" d="M 342.5,52.1 L 332.6,52.1" style="fill:none;fill-rule:evenodd;stroke:#000000;stroke-width:2.0px;stroke-linecap:butt;stroke-linejoin:miter;stroke-opacity:1"/>
<path class="bond-11 atom-11 atom-12" d="M 352.5,47.8 L 342.5,47.8" style="fill:none;fill-rule:evenodd;stroke:#FF0000;stroke-width:2.0px;stroke-linecap:butt;stroke-linejoin:miter;stroke-opacity:1"/>
<path class="bond-11 atom-11 atom-12" d="M 342.5,47.8 L 332.6,47.8" style="fill:none;fill-rule:evenodd;stroke:#000000;stroke-width:2.0px;stroke-linecap:butt;stroke-linejoin:miter;stroke-opacity:1"/>
<path class="bond-12 atom-12 atom-13" d="M 324.4,52.1 L 314.5,52.1" style="fill:none;fill-rule:evenodd;stroke:#000000;stroke-width:2.0px;stroke-linecap:butt;stroke-linejoin:miter;stroke-opacity:1"/>
<path class="bond-12 atom-12 atom-13" d="M 314.5,52.1 L 304.5,52.1" style="fill:none;fill-rule:evenodd;stroke:#FF0000;stroke-width:2.0px;stroke-linecap:butt;stroke-linejoin:miter;stroke-opacity:1"/>
<path class="bond-12 atom-12 atom-13" d="M 324.4,47.8 L 314.5,47.8" style="fill:none;fill-rule:evenodd;stroke:#000000;stroke-width:2.0px;stroke-linecap:butt;stroke-linejoin:miter;stroke-opacity:1"/>
<path class="bond-12 atom-12 atom-13" d="M 314.5,47.8 L 304.5,47.8" style="fill:none;fill-rule:evenodd;stroke:#FF0000;stroke-width:2.0px;stroke-linecap:butt;stroke-linejoin:miter;stroke-opacity:1"/>
<path class="atom-0" d="M 353.5 50.0 Q 353.5 48.0, 354.4 46.9 Q 355.4 45.8, 357.2 45.8 Q 359.0 45.8, 359.9 46.9 Q 360.9 48.0, 360.9 50.0 Q 360.9 51.9, 359.9 53.1 Q 359.0 54.2, 357.2 54.2 Q 355.4 54.2, 354.4 53.1 Q 353.5 51.9, 353.5 50.0 M 357.2 53.3 Q 358.4 53.3, 359.1 52.4 Q 359.8 51.6, 359.8 50.0 Q 359.8 48.4, 359.1 47.6 Q 358.4 46.7, 357.2 46.7 Q 355.9 46.7, 355.3 47.6 Q 354.6 48.4, 354.6 50.0 Q 354.6 51.6, 355.3 52.4 Q 355.9 53.3, 357.2 53.3 " fill="#FF0000"/>
<path class="atom-1" d="M 325.4 50.0 Q 325.4 48.0, 326.3 46.9 Q 327.3 45.8, 329.1 45.8 Q 330.7 45.8, 331.6 47.0 L 330.9 47.6 Q 330.2 46.8, 329.1 46.8 Q 327.8 46.8, 327.2 47.6 Q 326.5 48.4, 326.5 50.0 Q 326.5 51.6, 327.2 52.4 Q 327.9 53.2, 329.2 53.2 Q 330.1 53.2, 331.1 52.7 L 331.4 53.6 Q 331.0 53.8, 330.4 54.0 Q 329.7 54.1, 329.0 54.1 Q 327.3 54.1, 326.3 53.1 Q 325.4 52.0, 325.4 50.0 " fill="#000000"/>
<path class="atom-2" d="M 296.1 50.0 Q 296.1 48.0, 297.1 46.9 Q 298.0 45.8, 299.8 45.8 Q 301.6 45.8, 302.6 46.9 Q 303.5 48.0, 303.5 50.0 Q 303.5 51.9, 302.6 53.1 Q 301.6 54.2, 299.8 54.2 Q 298.0 54.2, 297.1 53.1 Q 296.1 51.9, 296.1 50.0 M 299.8 53.3 Q 301.1 53.3, 301.7 52.4 Q 302.4 51.6, 302.4 50.0 Q 302.4 48.4, 301.7 47.6 Q 301.1 46.7, 299.8 46.7 Q 298.6 46.7, 297.9 47.6 Q 297.2 48.4, 297.2 50.0 Q 297.2 51.6, 297.9 52.4 Q 298.6 53.3, 299.8 53.3 " fill="#FF0000"/>
<path d="M 373.0,42.0 L 373.0,58.0" style="fill:none;fill-rule:evenodd;stroke:#000000;stroke-width:2.0px;stroke-linecap:butt;stroke-linejoin:miter;stroke-opacity:1"/>
<path d="M 365.0,50.0 L 381.0,50.0" style="fill:none;fill-rule:evenodd;stroke:#000000;stroke-width:2.0px;stroke-linecap:butt;stroke-linejoin:miter;stroke-opacity:1"/>
<path class="bond-13 atom-14 atom-15" d="M 409.9,47.8 L 419.3,45.4" style="fill:none;fill-rule:evenodd;stroke:#0000FF;stroke-width:2.0px;stroke-linecap:butt;stroke-linejoin:miter;stroke-opacity:1"/>
<path class="bond-13 atom-14 atom-15" d="M 419.3,45.4 L 428.6,43.0" style="fill:none;fill-rule:evenodd;stroke:#000000;stroke-width:2.0px;stroke-linecap:butt;stroke-linejoin:miter;stroke-opacity:1"/>
<path class="bond-14 atom-15 atom-16" d="M 428.6,43.0 L 448.7,63.4" style="fill:none;fill-rule:evenodd;stroke:#000000;stroke-width:2.0px;stroke-linecap:butt;stroke-linejoin:miter;stroke-opacity:1"/>
<path class="bond-15 atom-16 atom-17" d="M 448.7,63.4 L 476.5,56.2" style="fill:none;fill-rule:evenodd;stroke:#000000;stroke-width:2.0px;stroke-linecap:butt;stroke-linejoin:miter;stroke-opacity:1"/>
<path class="bond-16 atom-17 atom-18" d="M 476.5,56.2 L 498.6,74.5" style="fill:none;fill-rule:evenodd;stroke:#000000;stroke-width:2.0px;stroke-linecap:butt;stroke-linejoin:miter;stroke-opacity:1"/>
<path class="bond-16 atom-17 atom-18" d="M 481.6,54.9 L 498.9,69.2" style="fill:none;fill-rule:evenodd;stroke:#000000;stroke-width:2.0px;stroke-linecap:butt;stroke-linejoin:miter;stroke-opacity:1"/>
<path class="bond-17 atom-18 atom-19" d="M 498.6,74.5 L 508.7,68.1" style="fill:none;fill-rule:evenodd;stroke:#000000;stroke-width:2.0px;stroke-linecap:butt;stroke-linejoin:miter;stroke-opacity:1"/>
<path class="bond-17 atom-18 atom-19" d="M 508.7,68.1 L 518.8,61.7" style="fill:none;fill-rule:evenodd;stroke:#0000FF;stroke-width:2.0px;stroke-linecap:butt;stroke-linejoin:miter;stroke-opacity:1"/>
<path class="bond-18 atom-19 atom-20" d="M 521.5,54.1 L 518.5,42.7" style="fill:none;fill-rule:evenodd;stroke:#0000FF;stroke-width:2.0px;stroke-linecap:butt;stroke-linejoin:miter;stroke-opacity:1"/>
<path class="bond-18 atom-19 atom-20" d="M 518.5,42.7 L 515.6,31.3" style="fill:none;fill-rule:evenodd;stroke:#000000;stroke-width:2.0px;stroke-linecap:butt;stroke-linejoin:miter;stroke-opacity:1"/>
<path class="bond-19 atom-20 atom-21" d="M 515.6,31.3 L 503.3,30.6" style="fill:none;fill-rule:evenodd;stroke:#000000;stroke-width:2.0px;stroke-linecap:butt;stroke-linejoin:miter;stroke-opacity:1"/>
<path class="bond-19 atom-20 atom-21" d="M 503.3,30.6 L 491.0,29.8" style="fill:none;fill-rule:evenodd;stroke:#0000FF;stroke-width:2.0px;stroke-linecap:butt;stroke-linejoin:miter;stroke-opacity:1"/>
<path class="bond-19 atom-20 atom-21" d="M 512.2,35.4 L 501.5,34.8" style="fill:none;fill-rule:evenodd;stroke:#000000;stroke-width:2.0px;stroke-linecap:butt;stroke-linejoin:miter;stroke-opacity:1"/>
<path class="bond-19 atom-20 atom-21" d="M 501.5,34.8 L 490.7,34.1" style="fill:none;fill-rule:evenodd;stroke:#0000FF;stroke-width:2.0px;stroke-linecap:butt;stroke-linejoin:miter;stroke-opacity:1"/>
<path class="bond-20 atom-21 atom-17" d="M 485.0,34.6 L 480.7,45.4" style="fill:none;fill-rule:evenodd;stroke:#0000FF;stroke-width:2.0px;stroke-linecap:butt;stroke-linejoin:miter;stroke-opacity:1"/>
<path class="bond-20 atom-21 atom-17" d="M 480.7,45.4 L 476.5,56.2" style="fill:none;fill-rule:evenodd;stroke:#000000;stroke-width:2.0px;stroke-linecap:butt;stroke-linejoin:miter;stroke-opacity:1"/>
<path d="M 428.1,43.1 L 428.6,43.0 L 429.6,44.0" style="fill:none;stroke:#000000;stroke-width:2.0px;stroke-linecap:butt;stroke-linejoin:miter;stroke-opacity:1;"/>
<path d="M 447.7,62.4 L 448.7,63.4 L 450.1,63.1" style="fill:none;stroke:#000000;stroke-width:2.0px;stroke-linecap:butt;stroke-linejoin:miter;stroke-opacity:1;"/>
<path d="M 497.5,73.6 L 498.6,74.5 L 499.1,74.2" style="fill:none;stroke:#000000;stroke-width:2.0px;stroke-linecap:butt;stroke-linejoin:miter;stroke-opacity:1;"/>
<path d="M 515.8,31.9 L 515.6,31.3 L 515.0,31.3" style="fill:none;stroke:#000000;stroke-width:2.0px;stroke-linecap:butt;stroke-linejoin:miter;stroke-opacity:1;"/>
<path class="atom-0" d="M 385.2 46.1 L 386.3 46.1 L 386.3 49.5 L 390.5 49.5 L 390.5 46.1 L 391.6 46.1 L 391.6 54.2 L 390.5 54.2 L 390.5 50.5 L 386.3 50.5 L 386.3 54.2 L 385.2 54.2 L 385.2 46.1 " fill="#0000FF"/>
<path class="atom-0" d="M 395.7 55.4 Q 396.2 55.6, 396.5 55.9 Q 396.7 56.3, 396.7 56.8 Q 396.7 57.3, 396.5 57.6 Q 396.3 58.0, 395.8 58.2 Q 395.4 58.3, 394.9 58.3 Q 394.3 58.3, 393.9 58.1 Q 393.5 57.9, 393.1 57.5 L 393.5 57.1 Q 393.9 57.5, 394.2 57.6 Q 394.4 57.7, 394.9 57.7 Q 395.4 57.7, 395.7 57.5 Q 396.0 57.2, 396.0 56.8 Q 396.0 56.2, 395.7 56.0 Q 395.3 55.8, 394.7 55.8 L 394.3 55.8 L 394.3 55.2 L 394.6 55.2 Q 395.2 55.2, 395.5 55.0 Q 395.8 54.7, 395.8 54.2 Q 395.8 53.9, 395.6 53.7 Q 395.3 53.5, 394.9 53.5 Q 394.4 53.5, 394.2 53.6 Q 393.9 53.8, 393.7 54.2 L 393.2 53.9 Q 393.4 53.4, 393.8 53.1 Q 394.3 52.8, 394.9 52.8 Q 395.7 52.8, 396.1 53.2 Q 396.6 53.6, 396.6 54.2 Q 396.6 54.6, 396.4 55.0 Q 396.1 55.3, 395.7 55.4 " fill="#0000FF"/>
<path class="atom-0" d="M 399.0 46.1 L 401.7 50.4 Q 402.0 50.8, 402.4 51.6 Q 402.8 52.3, 402.8 52.4 L 402.8 46.1 L 403.9 46.1 L 403.9 54.2 L 402.8 54.2 L 399.9 49.5 Q 399.6 49.0, 399.3 48.3 Q 398.9 47.7, 398.8 47.5 L 398.8 54.2 L 397.8 54.2 L 397.8 46.1 L 399.0 46.1 " fill="#0000FF"/>
<path class="atom-0" d="M 405.4 47.5 L 406.9 47.5 L 406.9 46.0 L 407.5 46.0 L 407.5 47.5 L 409.0 47.5 L 409.0 48.1 L 407.5 48.1 L 407.5 49.6 L 406.9 49.6 L 406.9 48.1 L 405.4 48.1 L 405.4 47.5 " fill="#0000FF"/>
<path class="atom-5" d="M 521.0 55.0 L 523.7 59.3 Q 523.9 59.8, 524.3 60.5 Q 524.8 61.3, 524.8 61.3 L 524.8 55.0 L 525.9 55.0 L 525.9 63.1 L 524.8 63.1 L 521.9 58.4 Q 521.6 57.9, 521.2 57.3 Q 520.9 56.6, 520.8 56.4 L 520.8 63.1 L 519.7 63.1 L 519.7 55.0 L 521.0 55.0 " fill="#0000FF"/>
<path class="atom-5" d="M 527.4 55.0 L 528.5 55.0 L 528.5 58.5 L 532.7 58.5 L 532.7 55.0 L 533.8 55.0 L 533.8 63.1 L 532.7 63.1 L 532.7 59.4 L 528.5 59.4 L 528.5 63.1 L 527.4 63.1 L 527.4 55.0 " fill="#0000FF"/>
<path class="atom-7" d="M 485.2 25.5 L 487.8 29.8 Q 488.1 30.2, 488.5 31.0 Q 489.0 31.8, 489.0 31.8 L 489.0 25.5 L 490.1 25.5 L 490.1 33.6 L 488.9 33.6 L 486.1 28.9 Q 485.8 28.4, 485.4 27.7 Q 485.1 27.1, 485.0 26.9 L 485.0 33.6 L 483.9 33.6 L 483.9 25.5 L 485.2 25.5 " fill="#0000FF"/>
<path d="M 236.0,50.0 L 284.0,50.0" style="fill:none;fill-rule:evenodd;stroke:#000000;stroke-width:2.0px;stroke-linecap:butt;stroke-linejoin:miter;stroke-opacity:1"/>
<path d="M 284.0,50.0 L 279.0,52.9" style="fill:none;fill-rule:evenodd;stroke:#000000;stroke-width:2.0px;stroke-linecap:butt;stroke-linejoin:miter;stroke-opacity:1"/>
<path d="M 284.0,50.0 L 279.0,47.1" style="fill:none;fill-rule:evenodd;stroke:#000000;stroke-width:2.0px;stroke-linecap:butt;stroke-linejoin:miter;stroke-opacity:1"/>
</svg>