<svg xmlns="http://www.w3.org/2000/svg" xmlns:rdkit="http://www.rdkit.org/xml" xmlns:xlink="http://www.w3.org/1999/xlink" version="1.1" baseProfile="full" xml:space="preserve" width="600px" height="100px" viewBox="0 0 600 100">
<!-- END OF HEADER -->
<rect style="opacity:1.0;fill:#FFFFFF;stroke:none" width="600.0" height="100.0" x="0.0" y="0.0"> </rect>
<path class="bond-0 atom-0 atom-1" d="M 95.4,42.6 L 108.4,39.4" style="fill:none;fill-rule:evenodd;stroke:#FF0000;stroke-width:2.0px;stroke-linecap:butt;stroke-linejoin:miter;stroke-opacity:1"/>
<path class="bond-0 atom-0 atom-1" d="M 108.4,39.4 L 121.5,36.3" style="fill:none;fill-rule:evenodd;stroke:#000000;stroke-width:2.0px;stroke-linecap:butt;stroke-linejoin:miter;stroke-opacity:1"/>
<path class="bond-0 atom-0 atom-1" d="M 96.5,47.0 L 109.5,43.9" style="fill:none;fill-rule:evenodd;stroke:#FF0000;stroke-width:2.0px;stroke-linecap:butt;stroke-linejoin:miter;stroke-opacity:1"/>
<path class="bond-0 atom-0 atom-1" d="M 109.5,43.9 L 122.5,40.8" style="fill:none;fill-rule:evenodd;stroke:#000000;stroke-width:2.0px;stroke-linecap:butt;stroke-linejoin:miter;stroke-opacity:1"/>
<path class="bond-1 atom-1 atom-2" d="M 120.7,38.8 L 124.2,26.9" style="fill:none;fill-rule:evenodd;stroke:#000000;stroke-width:2.0px;stroke-linecap:butt;stroke-linejoin:miter;stroke-opacity:1"/>
<path class="bond-1 atom-1 atom-2" d="M 124.2,26.9 L 127.8,15.0" style="fill:none;fill-rule:evenodd;stroke:#FF0000;stroke-width:2.0px;stroke-linecap:butt;stroke-linejoin:miter;stroke-opacity:1"/>
<path class="bond-2 atom-1 atom-3" d="M 120.7,38.8 L 141.8,61.0" style="fill:none;fill-rule:evenodd;stroke:#000000;stroke-width:2.0px;stroke-linecap:butt;stroke-linejoin:miter;stroke-opacity:1"/>
<path class="bond-3 atom-3 atom-4" d="M 139.9,59.1 L 136.2,71.7" style="fill:none;fill-rule:evenodd;stroke:#000000;stroke-width:2.0px;stroke-linecap:butt;stroke-linejoin:miter;stroke-opacity:1"/>
<path class="bond-3 atom-3 atom-4" d="M 136.2,71.7 L 132.5,84.3" style="fill:none;fill-rule:evenodd;stroke:#FF0000;stroke-width:2.0px;stroke-linecap:butt;stroke-linejoin:miter;stroke-opacity:1"/>
<path class="bond-3 atom-3 atom-4" d="M 144.3,60.4 L 140.6,73.0" style="fill:none;fill-rule:evenodd;stroke:#000000;stroke-width:2.0px;stroke-linecap:butt;stroke-linejoin:miter;stroke-opacity:1"/>
<path class="bond-3 atom-3 atom-4" d="M 140.6,73.0 L 136.9,85.6" style="fill:none;fill-rule:evenodd;stroke:#FF0000;stroke-width:2.0px;stroke-linecap:butt;stroke-linejoin:miter;stroke-opacity:1"/>
<path class="bond-4 atom-3 atom-5" d="M 141.8,61.0 L 171.5,53.9" style="fill:none;fill-rule:evenodd;stroke:#000000;stroke-width:2.0px;stroke-linecap:butt;stroke-linejoin:miter;stroke-opacity:1"/>
<path class="bond-5 atom-5 atom-6" d="M 171.5,53.9 L 180.2,24.6" style="fill:none;fill-rule:evenodd;stroke:#000000;stroke-width:2.0px;stroke-linecap:butt;stroke-linejoin:miter;stroke-opacity:1"/>
<path class="bond-5 atom-5 atom-6" d="M 176.7,52.7 L 183.9,28.4" style="fill:none;fill-rule:evenodd;stroke:#000000;stroke-width:2.0px;stroke-linecap:butt;stroke-linejoin:miter;stroke-opacity:1"/>
<path class="bond-6 atom-6 atom-7" d="M 180.2,24.6 L 209.9,17.4" style="fill:none;fill-rule:evenodd;stroke:#000000;stroke-width:2.0px;stroke-linecap:butt;stroke-linejoin:miter;stroke-opacity:1"/>
<path class="bond-7 atom-7 atom-8" d="M 209.9,17.4 L 231.0,39.6" style="fill:none;fill-rule:evenodd;stroke:#000000;stroke-width:2.0px;stroke-linecap:butt;stroke-linejoin:miter;stroke-opacity:1"/>
<path class="bond-7 atom-7 atom-8" d="M 208.4,22.5 L 225.8,40.8" style="fill:none;fill-rule:evenodd;stroke:#000000;stroke-width:2.0px;stroke-linecap:butt;stroke-linejoin:miter;stroke-opacity:1"/>
<path class="bond-8 atom-8 atom-9" d="M 231.0,39.6 L 222.3,68.9" style="fill:none;fill-rule:evenodd;stroke:#000000;stroke-width:2.0px;stroke-linecap:butt;stroke-linejoin:miter;stroke-opacity:1"/>
<path class="bond-9 atom-9 atom-10" d="M 222.3,68.9 L 192.6,76.1" style="fill:none;fill-rule:evenodd;stroke:#000000;stroke-width:2.0px;stroke-linecap:butt;stroke-linejoin:miter;stroke-opacity:1"/>
<path class="bond-9 atom-9 atom-10" d="M 218.7,65.1 L 194.1,71.0" style="fill:none;fill-rule:evenodd;stroke:#000000;stroke-width:2.0px;stroke-linecap:butt;stroke-linejoin:miter;stroke-opacity:1"/>
<path class="bond-10 atom-10 atom-5" d="M 192.6,76.1 L 171.5,53.9" style="fill:none;fill-rule:evenodd;stroke:#000000;stroke-width:2.0px;stroke-linecap:butt;stroke-linejoin:miter;stroke-opacity:1"/>
<path d="M 120.9,38.2 L 120.7,38.8 L 121.8,39.9" style="fill:none;stroke:#000000;stroke-width:2.0px;stroke-linecap:butt;stroke-linejoin:miter;stroke-opacity:1;"/>
<path d="M 140.7,59.9 L 141.8,61.0 L 143.3,60.7" style="fill:none;stroke:#000000;stroke-width:2.0px;stroke-linecap:butt;stroke-linejoin:miter;stroke-opacity:1;"/>
<path d="M 179.8,26.0 L 180.2,24.6 L 181.7,24.2" style="fill:none;stroke:#000000;stroke-width:2.0px;stroke-linecap:butt;stroke-linejoin:miter;stroke-opacity:1;"/>
<path d="M 208.5,17.8 L 209.9,17.4 L 211.0,18.5" style="fill:none;stroke:#000000;stroke-width:2.0px;stroke-linecap:butt;stroke-linejoin:miter;stroke-opacity:1;"/>
<path d="M 229.9,38.5 L 231.0,39.6 L 230.6,41.1" style="fill:none;stroke:#000000;stroke-width:2.0px;stroke-linecap:butt;stroke-linejoin:miter;stroke-opacity:1;"/>
<path d="M 222.7,67.5 L 222.3,68.9 L 220.8,69.3" style="fill:none;stroke:#000000;stroke-width:2.0px;stroke-linecap:butt;stroke-linejoin:miter;stroke-opacity:1;"/>
<path d="M 194.1,75.7 L 192.6,76.1 L 191.5,75.0" style="fill:none;stroke:#000000;stroke-width:2.0px;stroke-linecap:butt;stroke-linejoin:miter;stroke-opacity:1;"/>
<path class="atom-0" d="M 87.0 46.0 Q 87.0 43.9, 88.0 42.8 Q 89.1 41.6, 91.0 41.6 Q 92.9 41.6, 93.9 42.8 Q 95.0 43.9, 95.0 46.0 Q 95.0 48.1, 93.9 49.3 Q 92.9 50.5, 91.0 50.5 Q 89.1 50.5, 88.0 49.3 Q 87.0 48.1, 87.0 46.0 M 91.0 49.5 Q 92.3 49.5, 93.0 48.6 Q 93.7 47.7, 93.7 46.0 Q 93.7 44.3, 93.0 43.4 Q 92.3 42.6, 91.0 42.6 Q 89.7 42.6, 88.9 43.4 Q 88.2 44.3, 88.2 46.0 Q 88.2 47.8, 88.9 48.6 Q 89.7 49.5, 91.0 49.5 " fill="#FF0000"/>
<path class="atom-2" d="M 125.4 9.5 Q 125.4 7.5, 126.5 6.3 Q 127.5 5.1, 129.4 5.1 Q 131.3 5.1, 132.4 6.3 Q 133.4 7.5, 133.4 9.5 Q 133.4 11.6, 132.3 12.8 Q 131.3 14.0, 129.4 14.0 Q 127.5 14.0, 126.5 12.8 Q 125.4 11.7, 125.4 9.5 M 129.4 13.0 Q 130.7 13.0, 131.4 12.2 Q 132.2 11.3, 132.2 9.5 Q 132.2 7.8, 131.4 7.0 Q 130.7 6.1, 129.4 6.1 Q 128.1 6.1, 127.4 7.0 Q 126.7 7.8, 126.7 9.5 Q 126.7 11.3, 127.4 12.2 Q 128.1 13.0, 129.4 13.0 " fill="#FF0000"/>
<path class="atom-2" d="M 134.6 6.5 L 137.6 6.5 L 137.6 7.2 L 134.6 7.2 L 134.6 6.5 " fill="#FF0000"/>
<path class="atom-4" d="M 129.1 90.4 Q 129.1 88.3, 130.1 87.1 Q 131.2 86.0, 133.1 86.0 Q 135.0 86.0, 136.0 87.1 Q 137.1 88.3, 137.1 90.4 Q 137.1 92.5, 136.0 93.7 Q 135.0 94.9, 133.1 94.9 Q 131.2 94.9, 130.1 93.7 Q 129.1 92.5, 129.1 90.4 M 133.1 93.9 Q 134.4 93.9, 135.1 93.0 Q 135.8 92.1, 135.8 90.4 Q 135.8 88.7, 135.1 87.8 Q 134.4 87.0, 133.1 87.0 Q 131.8 87.0, 131.0 87.8 Q 130.3 88.7, 130.3 90.4 Q 130.3 92.1, 131.0 93.0 Q 131.8 93.9, 133.1 93.9 " fill="#FF0000"/>
<path class="bond-0 atom-0 atom-1" d="M 365.6,52.2 L 355.0,52.2" style="fill:none;fill-rule:evenodd;stroke:#FF0000;stroke-width:2.0px;stroke-linecap:butt;stroke-linejoin:miter;stroke-opacity:1"/>
<path class="bond-0 atom-0 atom-1" d="M 355.0,52.2 L 344.3,52.2" style="fill:none;fill-rule:evenodd;stroke:#000000;stroke-width:2.0px;stroke-linecap:butt;stroke-linejoin:miter;stroke-opacity:1"/>
<path class="bond-0 atom-0 atom-1" d="M 365.6,47.6 L 355.0,47.6" style="fill:none;fill-rule:evenodd;stroke:#FF0000;stroke-width:2.0px;stroke-linecap:butt;stroke-linejoin:miter;stroke-opacity:1"/>
<path class="bond-0 atom-0 atom-1" d="M 355.0,47.6 L 344.3,47.6" style="fill:none;fill-rule:evenodd;stroke:#000000;stroke-width:2.0px;stroke-linecap:butt;stroke-linejoin:miter;stroke-opacity:1"/>
<path class="bond-1 atom-1 atom-2" d="M 335.7,52.2 L 325.0,52.2" style="fill:none;fill-rule:evenodd;stroke:#000000;stroke-width:2.0px;stroke-linecap:butt;stroke-linejoin:miter;stroke-opacity:1"/>
<path class="bond-1 atom-1 atom-2" d="M 325.0,52.2 L 314.4,52.2" style="fill:none;fill-rule:evenodd;stroke:#FF0000;stroke-width:2.0px;stroke-linecap:butt;stroke-linejoin:miter;stroke-opacity:1"/>
<path class="bond-1 atom-1 atom-2" d="M 335.7,47.6 L 325.0,47.6" style="fill:none;fill-rule:evenodd;stroke:#000000;stroke-width:2.0px;stroke-linecap:butt;stroke-linejoin:miter;stroke-opacity:1"/>
<path class="bond-1 atom-1 atom-2" d="M 325.0,47.6 L 314.4,47.6" style="fill:none;fill-rule:evenodd;stroke:#FF0000;stroke-width:2.0px;stroke-linecap:butt;stroke-linejoin:miter;stroke-opacity:1"/>
<path class="atom-0" d="M 366.6 50.0 Q 366.6 47.9, 367.6 46.7 Q 368.7 45.6, 370.6 45.6 Q 372.5 45.6, 373.5 46.7 Q 374.6 47.9, 374.6 50.0 Q 374.6 52.1, 373.5 53.3 Q 372.5 54.4, 370.6 54.4 Q 368.7 54.4, 367.6 53.3 Q 366.6 52.1, 366.6 50.0 M 370.6 53.5 Q 371.9 53.5, 372.6 52.6 Q 373.3 51.7, 373.3 50.0 Q 373.3 48.3, 372.6 47.4 Q 371.9 46.5, 370.6 46.5 Q 369.3 46.5, 368.5 47.4 Q 367.8 48.2, 367.8 50.0 Q 367.8 51.7, 368.5 52.6 Q 369.3 53.5, 370.6 53.5 " fill="#FF0000"/>
<path class="atom-1" d="M 336.7 50.0 Q 336.7 47.8, 337.7 46.7 Q 338.7 45.6, 340.6 45.6 Q 342.4 45.6, 343.3 46.8 L 342.5 47.5 Q 341.8 46.6, 340.6 46.6 Q 339.3 46.6, 338.6 47.4 Q 337.9 48.3, 337.9 50.0 Q 337.9 51.7, 338.6 52.6 Q 339.3 53.4, 340.7 53.4 Q 341.7 53.4, 342.8 52.9 L 343.1 53.8 Q 342.7 54.1, 342.0 54.3 Q 341.3 54.4, 340.6 54.4 Q 338.7 54.4, 337.7 53.3 Q 336.7 52.1, 336.7 50.0 " fill="#000000"/>
<path class="atom-2" d="M 305.4 50.0 Q 305.4 47.9, 306.5 46.7 Q 307.5 45.6, 309.4 45.6 Q 311.3 45.6, 312.4 46.7 Q 313.4 47.9, 313.4 50.0 Q 313.4 52.1, 312.3 53.3 Q 311.3 54.4, 309.4 54.4 Q 307.5 54.4, 306.5 53.3 Q 305.4 52.1, 305.4 50.0 M 309.4 53.5 Q 310.7 53.5, 311.4 52.6 Q 312.2 51.7, 312.2 50.0 Q 312.2 48.3, 311.4 47.4 Q 310.7 46.5, 309.4 46.5 Q 308.1 46.5, 307.4 47.4 Q 306.7 48.2, 306.7 50.0 Q 306.7 51.7, 307.4 52.6 Q 308.1 53.5, 309.4 53.5 " fill="#FF0000"/>
<path d="M 387.5,42.0 L 387.5,58.0" style="fill:none;fill-rule:evenodd;stroke:#000000;stroke-width:2.0px;stroke-linecap:butt;stroke-linejoin:miter;stroke-opacity:1"/>
<path d="M 379.5,50.0 L 395.5,50.0" style="fill:none;fill-rule:evenodd;stroke:#000000;stroke-width:2.0px;stroke-linecap:butt;stroke-linejoin:miter;stroke-opacity:1"/>
<path class="bond-0 atom-0 atom-1" d="M 407.5,46.4 L 415.4,54.9" style="fill:none;fill-rule:evenodd;stroke:#FF0000;stroke-width:2.0px;stroke-linecap:butt;stroke-linejoin:miter;stroke-opacity:1"/>
<path class="bond-0 atom-0 atom-1" d="M 415.4,54.9 L 423.3,63.5" style="fill:none;fill-rule:evenodd;stroke:#000000;stroke-width:2.0px;stroke-linecap:butt;stroke-linejoin:miter;stroke-opacity:1"/>
<path class="bond-0 atom-0 atom-1" d="M 410.9,43.3 L 418.8,51.8" style="fill:none;fill-rule:evenodd;stroke:#FF0000;stroke-width:2.0px;stroke-linecap:butt;stroke-linejoin:miter;stroke-opacity:1"/>
<path class="bond-0 atom-0 atom-1" d="M 418.8,51.8 L 424.8,58.4" style="fill:none;fill-rule:evenodd;stroke:#000000;stroke-width:2.0px;stroke-linecap:butt;stroke-linejoin:miter;stroke-opacity:1"/>
<path class="bond-1 atom-1 atom-2" d="M 423.3,63.5 L 453.1,56.7" style="fill:none;fill-rule:evenodd;stroke:#000000;stroke-width:2.0px;stroke-linecap:butt;stroke-linejoin:miter;stroke-opacity:1"/>
<path class="bond-2 atom-2 atom-3" d="M 453.1,56.7 L 462.2,27.5" style="fill:none;fill-rule:evenodd;stroke:#000000;stroke-width:2.0px;stroke-linecap:butt;stroke-linejoin:miter;stroke-opacity:1"/>
<path class="bond-2 atom-2 atom-3" d="M 458.3,55.6 L 465.8,31.4" style="fill:none;fill-rule:evenodd;stroke:#000000;stroke-width:2.0px;stroke-linecap:butt;stroke-linejoin:miter;stroke-opacity:1"/>
<path class="bond-3 atom-3 atom-4" d="M 462.2,27.5 L 492.0,20.8" style="fill:none;fill-rule:evenodd;stroke:#000000;stroke-width:2.0px;stroke-linecap:butt;stroke-linejoin:miter;stroke-opacity:1"/>
<path class="bond-4 atom-4 atom-5" d="M 492.0,20.8 L 512.8,43.3" style="fill:none;fill-rule:evenodd;stroke:#000000;stroke-width:2.0px;stroke-linecap:butt;stroke-linejoin:miter;stroke-opacity:1"/>
<path class="bond-4 atom-4 atom-5" d="M 490.5,25.9 L 507.6,44.4" style="fill:none;fill-rule:evenodd;stroke:#000000;stroke-width:2.0px;stroke-linecap:butt;stroke-linejoin:miter;stroke-opacity:1"/>
<path class="bond-5 atom-5 atom-6" d="M 512.8,43.3 L 503.7,72.5" style="fill:none;fill-rule:evenodd;stroke:#000000;stroke-width:2.0px;stroke-linecap:butt;stroke-linejoin:miter;stroke-opacity:1"/>
<path class="bond-6 atom-6 atom-7" d="M 503.7,72.5 L 473.8,79.2" style="fill:none;fill-rule:evenodd;stroke:#000000;stroke-width:2.0px;stroke-linecap:butt;stroke-linejoin:miter;stroke-opacity:1"/>
<path class="bond-6 atom-6 atom-7" d="M 500.1,68.6 L 475.4,74.1" style="fill:none;fill-rule:evenodd;stroke:#000000;stroke-width:2.0px;stroke-linecap:butt;stroke-linejoin:miter;stroke-opacity:1"/>
<path class="bond-7 atom-7 atom-2" d="M 473.8,79.2 L 453.1,56.7" style="fill:none;fill-rule:evenodd;stroke:#000000;stroke-width:2.0px;stroke-linecap:butt;stroke-linejoin:miter;stroke-opacity:1"/>
<path d="M 422.9,63.0 L 423.3,63.5 L 424.8,63.1" style="fill:none;stroke:#000000;stroke-width:2.0px;stroke-linecap:butt;stroke-linejoin:miter;stroke-opacity:1;"/>
<path d="M 461.7,29.0 L 462.2,27.5 L 463.7,27.2" style="fill:none;stroke:#000000;stroke-width:2.0px;stroke-linecap:butt;stroke-linejoin:miter;stroke-opacity:1;"/>
<path d="M 490.5,21.1 L 492.0,20.8 L 493.1,21.9" style="fill:none;stroke:#000000;stroke-width:2.0px;stroke-linecap:butt;stroke-linejoin:miter;stroke-opacity:1;"/>
<path d="M 511.7,42.1 L 512.8,43.3 L 512.3,44.7" style="fill:none;stroke:#000000;stroke-width:2.0px;stroke-linecap:butt;stroke-linejoin:miter;stroke-opacity:1;"/>
<path d="M 504.1,71.0 L 503.7,72.5 L 502.2,72.8" style="fill:none;stroke:#000000;stroke-width:2.0px;stroke-linecap:butt;stroke-linejoin:miter;stroke-opacity:1;"/>
<path d="M 475.3,78.9 L 473.8,79.2 L 472.8,78.1" style="fill:none;stroke:#000000;stroke-width:2.0px;stroke-linecap:butt;stroke-linejoin:miter;stroke-opacity:1;"/>
<path class="atom-0" d="M 400.2 39.4 Q 400.2 37.4, 401.3 36.2 Q 402.3 35.0, 404.2 35.0 Q 406.1 35.0, 407.1 36.2 Q 408.2 37.4, 408.2 39.4 Q 408.2 41.6, 407.1 42.8 Q 406.1 43.9, 404.2 43.9 Q 402.3 43.9, 401.3 42.8 Q 400.2 41.6, 400.2 39.4 M 404.2 43.0 Q 405.5 43.0, 406.2 42.1 Q 407.0 41.2, 407.0 39.4 Q 407.0 37.7, 406.2 36.9 Q 405.5 36.0, 404.2 36.0 Q 402.9 36.0, 402.2 36.9 Q 401.4 37.7, 401.4 39.4 Q 401.4 41.2, 402.2 42.1 Q 402.9 43.0, 404.2 43.0 " fill="#FF0000"/>
<path d="M 243.0,50.0 L 293.0,50.0" style="fill:none;fill-rule:evenodd;stroke:#000000;stroke-width:2.0px;stroke-linecap:butt;stroke-linejoin:miter;stroke-opacity:1"/>
<path d="M 293.0,50.0 L 288.0,52.9" style="fill:none;fill-rule:evenodd;stroke:#000000;stroke-width:2.0px;stroke-linecap:butt;stroke-linejoin:miter;stroke-opacity:1"/>
<path d="M 293.0,50.0 L 288.0,47.1" style="fill:none;fill-rule:evenodd;stroke:#000000;stroke-width:2.0px;stroke-linecap:butt;stroke-linejoin:miter;stroke-opacity:1"/>
</svg>