<svg xmlns="http://www.w3.org/2000/svg" xmlns:rdkit="http://www.rdkit.org/xml" xmlns:xlink="http://www.w3.org/1999/xlink" version="1.1" baseProfile="full" xml:space="preserve" width="750px" height="100px" viewBox="0 0 750 100">
<!-- END OF HEADER -->
<rect style="opacity:1.0;fill:#FFFFFF;stroke:none" width="750.0" height="100.0" x="0.0" y="0.0"> </rect>
<path class="bond-0 atom-0 atom-1" d="M 205.6,20.9 L 188.8,49.9" style="fill:none;fill-rule:evenodd;stroke:#000000;stroke-width:2.0px;stroke-linecap:butt;stroke-linejoin:miter;stroke-opacity:1"/>
<path class="bond-1 atom-1 atom-2" d="M 185.9,49.9 L 192.9,62.1" style="fill:none;fill-rule:evenodd;stroke:#000000;stroke-width:2.0px;stroke-linecap:butt;stroke-linejoin:miter;stroke-opacity:1"/>
<path class="bond-1 atom-1 atom-2" d="M 192.9,62.1 L 200.0,74.3" style="fill:none;fill-rule:evenodd;stroke:#FF0000;stroke-width:2.0px;stroke-linecap:butt;stroke-linejoin:miter;stroke-opacity:1"/>
<path class="bond-1 atom-1 atom-2" d="M 190.2,47.4 L 197.3,59.6" style="fill:none;fill-rule:evenodd;stroke:#000000;stroke-width:2.0px;stroke-linecap:butt;stroke-linejoin:miter;stroke-opacity:1"/>
<path class="bond-1 atom-1 atom-2" d="M 197.3,59.6 L 204.3,71.8" style="fill:none;fill-rule:evenodd;stroke:#FF0000;stroke-width:2.0px;stroke-linecap:butt;stroke-linejoin:miter;stroke-opacity:1"/>
<path class="bond-2 atom-1 atom-3" d="M 188.8,49.9 L 155.2,49.9" style="fill:none;fill-rule:evenodd;stroke:#000000;stroke-width:2.0px;stroke-linecap:butt;stroke-linejoin:miter;stroke-opacity:1"/>
<path class="bond-3 atom-3 atom-4" d="M 153.8,47.4 L 146.7,59.6" style="fill:none;fill-rule:evenodd;stroke:#000000;stroke-width:2.0px;stroke-linecap:butt;stroke-linejoin:miter;stroke-opacity:1"/>
<path class="bond-3 atom-3 atom-4" d="M 146.7,59.6 L 139.7,71.8" style="fill:none;fill-rule:evenodd;stroke:#FF0000;stroke-width:2.0px;stroke-linecap:butt;stroke-linejoin:miter;stroke-opacity:1"/>
<path class="bond-3 atom-3 atom-4" d="M 158.1,49.9 L 151.1,62.1" style="fill:none;fill-rule:evenodd;stroke:#000000;stroke-width:2.0px;stroke-linecap:butt;stroke-linejoin:miter;stroke-opacity:1"/>
<path class="bond-3 atom-3 atom-4" d="M 151.1,62.1 L 144.0,74.3" style="fill:none;fill-rule:evenodd;stroke:#FF0000;stroke-width:2.0px;stroke-linecap:butt;stroke-linejoin:miter;stroke-opacity:1"/>
<path class="bond-4 atom-3 atom-5" d="M 155.2,49.9 L 148.6,38.4" style="fill:none;fill-rule:evenodd;stroke:#000000;stroke-width:2.0px;stroke-linecap:butt;stroke-linejoin:miter;stroke-opacity:1"/>
<path class="bond-4 atom-3 atom-5" d="M 148.6,38.4 L 141.9,26.9" style="fill:none;fill-rule:evenodd;stroke:#FF0000;stroke-width:2.0px;stroke-linecap:butt;stroke-linejoin:miter;stroke-opacity:1"/>
<path d="M 189.6,48.5 L 188.8,49.9 L 187.1,49.9" style="fill:none;stroke:#000000;stroke-width:2.0px;stroke-linecap:butt;stroke-linejoin:miter;stroke-opacity:1;"/>
<path d="M 156.9,49.9 L 155.2,49.9 L 154.9,49.4" style="fill:none;stroke:#000000;stroke-width:2.0px;stroke-linecap:butt;stroke-linejoin:miter;stroke-opacity:1;"/>
<path class="atom-2" d="M 201.2 79.0 Q 201.2 76.7, 202.3 75.5 Q 203.4 74.2, 205.6 74.2 Q 207.7 74.2, 208.8 75.5 Q 209.9 76.7, 209.9 79.0 Q 209.9 81.3, 208.8 82.6 Q 207.6 83.9, 205.6 83.9 Q 203.5 83.9, 202.3 82.6 Q 201.2 81.3, 201.2 79.0 M 205.6 82.9 Q 207.0 82.9, 207.8 81.9 Q 208.6 80.9, 208.6 79.0 Q 208.6 77.1, 207.8 76.2 Q 207.0 75.3, 205.6 75.3 Q 204.1 75.3, 203.3 76.2 Q 202.5 77.1, 202.5 79.0 Q 202.5 80.9, 203.3 81.9 Q 204.1 82.9, 205.6 82.9 " fill="#FF0000"/>
<path class="atom-4" d="M 134.1 79.0 Q 134.1 76.7, 135.2 75.5 Q 136.3 74.2, 138.4 74.2 Q 140.6 74.2, 141.7 75.5 Q 142.8 76.7, 142.8 79.0 Q 142.8 81.3, 141.7 82.6 Q 140.5 83.9, 138.4 83.9 Q 136.4 83.9, 135.2 82.6 Q 134.1 81.3, 134.1 79.0 M 138.4 82.9 Q 139.9 82.9, 140.7 81.9 Q 141.5 80.9, 141.5 79.0 Q 141.5 77.1, 140.7 76.2 Q 139.9 75.3, 138.4 75.3 Q 137.0 75.3, 136.2 76.2 Q 135.4 77.1, 135.4 79.0 Q 135.4 80.9, 136.2 81.9 Q 137.0 82.9, 138.4 82.9 " fill="#FF0000"/>
<path class="atom-5" d="M 134.1 20.9 Q 134.1 18.6, 135.2 17.3 Q 136.3 16.1, 138.4 16.1 Q 140.6 16.1, 141.7 17.3 Q 142.8 18.6, 142.8 20.9 Q 142.8 23.2, 141.7 24.5 Q 140.5 25.8, 138.4 25.8 Q 136.4 25.8, 135.2 24.5 Q 134.1 23.2, 134.1 20.9 M 138.4 24.7 Q 139.9 24.7, 140.7 23.8 Q 141.5 22.8, 141.5 20.9 Q 141.5 19.0, 140.7 18.1 Q 139.9 17.1, 138.4 17.1 Q 137.0 17.1, 136.2 18.1 Q 135.4 19.0, 135.4 20.9 Q 135.4 22.8, 136.2 23.8 Q 137.0 24.7, 138.4 24.7 " fill="#FF0000"/>
<path class="atom-5" d="M 144.2 17.6 L 147.4 17.6 L 147.4 18.3 L 144.2 18.3 L 144.2 17.6 " fill="#FF0000"/>
<path d="M 223.5,41.0 L 223.5,59.0" style="fill:none;fill-rule:evenodd;stroke:#000000;stroke-width:2.0px;stroke-linecap:butt;stroke-linejoin:miter;stroke-opacity:1"/>
<path d="M 214.5,50.0 L 232.5,50.0" style="fill:none;fill-rule:evenodd;stroke:#000000;stroke-width:2.0px;stroke-linecap:butt;stroke-linejoin:miter;stroke-opacity:1"/>
<path class="bond-0 atom-0 atom-1" d="M 308.6,20.9 L 291.8,49.9" style="fill:none;fill-rule:evenodd;stroke:#000000;stroke-width:2.0px;stroke-linecap:butt;stroke-linejoin:miter;stroke-opacity:1"/>
<path class="bond-1 atom-1 atom-2" d="M 288.9,49.9 L 295.9,62.1" style="fill:none;fill-rule:evenodd;stroke:#000000;stroke-width:2.0px;stroke-linecap:butt;stroke-linejoin:miter;stroke-opacity:1"/>
<path class="bond-1 atom-1 atom-2" d="M 295.9,62.1 L 303.0,74.3" style="fill:none;fill-rule:evenodd;stroke:#FF0000;stroke-width:2.0px;stroke-linecap:butt;stroke-linejoin:miter;stroke-opacity:1"/>
<path class="bond-1 atom-1 atom-2" d="M 293.2,47.4 L 300.3,59.6" style="fill:none;fill-rule:evenodd;stroke:#000000;stroke-width:2.0px;stroke-linecap:butt;stroke-linejoin:miter;stroke-opacity:1"/>
<path class="bond-1 atom-1 atom-2" d="M 300.3,59.6 L 307.3,71.8" style="fill:none;fill-rule:evenodd;stroke:#FF0000;stroke-width:2.0px;stroke-linecap:butt;stroke-linejoin:miter;stroke-opacity:1"/>
<path class="bond-2 atom-1 atom-3" d="M 291.8,49.9 L 258.2,49.9" style="fill:none;fill-rule:evenodd;stroke:#000000;stroke-width:2.0px;stroke-linecap:butt;stroke-linejoin:miter;stroke-opacity:1"/>
<path class="bond-3 atom-3 atom-4" d="M 256.8,47.4 L 249.7,59.6" style="fill:none;fill-rule:evenodd;stroke:#000000;stroke-width:2.0px;stroke-linecap:butt;stroke-linejoin:miter;stroke-opacity:1"/>
<path class="bond-3 atom-3 atom-4" d="M 249.7,59.6 L 242.7,71.8" style="fill:none;fill-rule:evenodd;stroke:#FF0000;stroke-width:2.0px;stroke-linecap:butt;stroke-linejoin:miter;stroke-opacity:1"/>
<path class="bond-3 atom-3 atom-4" d="M 261.1,49.9 L 254.1,62.1" style="fill:none;fill-rule:evenodd;stroke:#000000;stroke-width:2.0px;stroke-linecap:butt;stroke-linejoin:miter;stroke-opacity:1"/>
<path class="bond-3 atom-3 atom-4" d="M 254.1,62.1 L 247.0,74.3" style="fill:none;fill-rule:evenodd;stroke:#FF0000;stroke-width:2.0px;stroke-linecap:butt;stroke-linejoin:miter;stroke-opacity:1"/>
<path class="bond-4 atom-3 atom-5" d="M 258.2,49.9 L 251.6,38.4" style="fill:none;fill-rule:evenodd;stroke:#000000;stroke-width:2.0px;stroke-linecap:butt;stroke-linejoin:miter;stroke-opacity:1"/>
<path class="bond-4 atom-3 atom-5" d="M 251.6,38.4 L 244.9,26.9" style="fill:none;fill-rule:evenodd;stroke:#FF0000;stroke-width:2.0px;stroke-linecap:butt;stroke-linejoin:miter;stroke-opacity:1"/>
<path d="M 292.6,48.5 L 291.8,49.9 L 290.1,49.9" style="fill:none;stroke:#000000;stroke-width:2.0px;stroke-linecap:butt;stroke-linejoin:miter;stroke-opacity:1;"/>
<path d="M 259.9,49.9 L 258.2,49.9 L 257.9,49.4" style="fill:none;stroke:#000000;stroke-width:2.0px;stroke-linecap:butt;stroke-linejoin:miter;stroke-opacity:1;"/>
<path class="atom-2" d="M 304.2 79.0 Q 304.2 76.7, 305.3 75.5 Q 306.4 74.2, 308.6 74.2 Q 310.7 74.2, 311.8 75.5 Q 312.9 76.7, 312.9 79.0 Q 312.9 81.3, 311.8 82.6 Q 310.6 83.9, 308.6 83.9 Q 306.5 83.9, 305.3 82.6 Q 304.2 81.3, 304.2 79.0 M 308.6 82.9 Q 310.0 82.9, 310.8 81.9 Q 311.6 80.9, 311.6 79.0 Q 311.6 77.1, 310.8 76.2 Q 310.0 75.3, 308.6 75.3 Q 307.1 75.3, 306.3 76.2 Q 305.5 77.1, 305.5 79.0 Q 305.5 80.9, 306.3 81.9 Q 307.1 82.9, 308.6 82.9 " fill="#FF0000"/>
<path class="atom-4" d="M 237.1 79.0 Q 237.1 76.7, 238.2 75.5 Q 239.3 74.2, 241.4 74.2 Q 243.6 74.2, 244.7 75.5 Q 245.8 76.7, 245.8 79.0 Q 245.8 81.3, 244.7 82.6 Q 243.5 83.9, 241.4 83.9 Q 239.4 83.9, 238.2 82.6 Q 237.1 81.3, 237.1 79.0 M 241.4 82.9 Q 242.9 82.9, 243.7 81.9 Q 244.5 80.9, 244.5 79.0 Q 244.5 77.1, 243.7 76.2 Q 242.9 75.3, 241.4 75.3 Q 240.0 75.3, 239.2 76.2 Q 238.4 77.1, 238.4 79.0 Q 238.4 80.9, 239.2 81.9 Q 240.0 82.9, 241.4 82.9 " fill="#FF0000"/>
<path class="atom-5" d="M 237.1 20.9 Q 237.1 18.6, 238.2 17.3 Q 239.3 16.1, 241.4 16.1 Q 243.6 16.1, 244.7 17.3 Q 245.8 18.6, 245.8 20.9 Q 245.8 23.2, 244.7 24.5 Q 243.5 25.8, 241.4 25.8 Q 239.4 25.8, 238.2 24.5 Q 237.1 23.2, 237.1 20.9 M 241.4 24.7 Q 242.9 24.7, 243.7 23.8 Q 244.5 22.8, 244.5 20.9 Q 244.5 19.0, 243.7 18.1 Q 242.9 17.1, 241.4 17.1 Q 240.0 17.1, 239.2 18.1 Q 238.4 19.0, 238.4 20.9 Q 238.4 22.8, 239.2 23.8 Q 240.0 24.7, 241.4 24.7 " fill="#FF0000"/>
<path class="atom-5" d="M 247.2 17.6 L 250.4 17.6 L 250.4 18.3 L 247.2 18.3 L 247.2 17.6 " fill="#FF0000"/>
<path class="bond-0 atom-0 atom-1" d="M 459.1,52.4 L 447.4,52.4" style="fill:none;fill-rule:evenodd;stroke:#FF0000;stroke-width:2.0px;stroke-linecap:butt;stroke-linejoin:miter;stroke-opacity:1"/>
<path class="bond-0 atom-0 atom-1" d="M 447.4,52.4 L 435.8,52.4" style="fill:none;fill-rule:evenodd;stroke:#000000;stroke-width:2.0px;stroke-linecap:butt;stroke-linejoin:miter;stroke-opacity:1"/>
<path class="bond-0 atom-0 atom-1" d="M 459.1,47.4 L 447.4,47.4" style="fill:none;fill-rule:evenodd;stroke:#FF0000;stroke-width:2.0px;stroke-linecap:butt;stroke-linejoin:miter;stroke-opacity:1"/>
<path class="bond-0 atom-0 atom-1" d="M 447.4,47.4 L 435.8,47.4" style="fill:none;fill-rule:evenodd;stroke:#000000;stroke-width:2.0px;stroke-linecap:butt;stroke-linejoin:miter;stroke-opacity:1"/>
<path class="bond-1 atom-1 atom-2" d="M 426.2,52.4 L 414.6,52.4" style="fill:none;fill-rule:evenodd;stroke:#000000;stroke-width:2.0px;stroke-linecap:butt;stroke-linejoin:miter;stroke-opacity:1"/>
<path class="bond-1 atom-1 atom-2" d="M 414.6,52.4 L 402.9,52.4" style="fill:none;fill-rule:evenodd;stroke:#FF0000;stroke-width:2.0px;stroke-linecap:butt;stroke-linejoin:miter;stroke-opacity:1"/>
<path class="bond-1 atom-1 atom-2" d="M 426.2,47.4 L 414.6,47.4" style="fill:none;fill-rule:evenodd;stroke:#000000;stroke-width:2.0px;stroke-linecap:butt;stroke-linejoin:miter;stroke-opacity:1"/>
<path class="bond-1 atom-1 atom-2" d="M 414.6,47.4 L 402.9,47.4" style="fill:none;fill-rule:evenodd;stroke:#FF0000;stroke-width:2.0px;stroke-linecap:butt;stroke-linejoin:miter;stroke-opacity:1"/>
<path class="atom-0" d="M 460.2 50.0 Q 460.2 47.7, 461.3 46.4 Q 462.4 45.1, 464.6 45.1 Q 466.7 45.1, 467.8 46.4 Q 468.9 47.7, 468.9 50.0 Q 468.9 52.3, 467.8 53.6 Q 466.6 54.9, 464.6 54.9 Q 462.5 54.9, 461.3 53.6 Q 460.2 52.3, 460.2 50.0 M 464.6 53.8 Q 466.0 53.8, 466.8 52.8 Q 467.6 51.9, 467.6 50.0 Q 467.6 48.1, 466.8 47.1 Q 466.0 46.2, 464.6 46.2 Q 463.1 46.2, 462.3 47.1 Q 461.5 48.1, 461.5 50.0 Q 461.5 51.9, 462.3 52.8 Q 463.1 53.8, 464.6 53.8 " fill="#FF0000"/>
<path class="atom-1" d="M 427.3 50.0 Q 427.3 47.6, 428.4 46.4 Q 429.6 45.1, 431.7 45.1 Q 433.6 45.1, 434.7 46.5 L 433.8 47.2 Q 433.0 46.2, 431.7 46.2 Q 430.2 46.2, 429.5 47.2 Q 428.7 48.1, 428.7 50.0 Q 428.7 51.8, 429.5 52.8 Q 430.3 53.8, 431.8 53.8 Q 432.9 53.8, 434.1 53.1 L 434.4 54.2 Q 434.0 54.5, 433.2 54.7 Q 432.4 54.9, 431.6 54.9 Q 429.6 54.9, 428.4 53.6 Q 427.3 52.3, 427.3 50.0 " fill="#000000"/>
<path class="atom-2" d="M 393.1 50.0 Q 393.1 47.7, 394.2 46.4 Q 395.3 45.1, 397.4 45.1 Q 399.6 45.1, 400.7 46.4 Q 401.8 47.7, 401.8 50.0 Q 401.8 52.3, 400.7 53.6 Q 399.5 54.9, 397.4 54.9 Q 395.4 54.9, 394.2 53.6 Q 393.1 52.3, 393.1 50.0 M 397.4 53.8 Q 398.9 53.8, 399.7 52.8 Q 400.5 51.9, 400.5 50.0 Q 400.5 48.1, 399.7 47.1 Q 398.9 46.2, 397.4 46.2 Q 396.0 46.2, 395.2 47.1 Q 394.4 48.1, 394.4 50.0 Q 394.4 51.9, 395.2 52.8 Q 396.0 53.8, 397.4 53.8 " fill="#FF0000"/>
<path d="M 482.5,41.0 L 482.5,59.0" style="fill:none;fill-rule:evenodd;stroke:#000000;stroke-width:2.0px;stroke-linecap:butt;stroke-linejoin:miter;stroke-opacity:1"/>
<path d="M 473.5,50.0 L 491.5,50.0" style="fill:none;fill-rule:evenodd;stroke:#000000;stroke-width:2.0px;stroke-linecap:butt;stroke-linejoin:miter;stroke-opacity:1"/>
<path class="bond-0 atom-0 atom-1" d="M 571.5,10.0 L 580.2,42.4" style="fill:none;fill-rule:evenodd;stroke:#000000;stroke-width:2.0px;stroke-linecap:butt;stroke-linejoin:miter;stroke-opacity:1"/>
<path class="bond-1 atom-1 atom-2" d="M 578.2,44.5 L 592.3,48.3" style="fill:none;fill-rule:evenodd;stroke:#000000;stroke-width:2.0px;stroke-linecap:butt;stroke-linejoin:miter;stroke-opacity:1"/>
<path class="bond-1 atom-1 atom-2" d="M 592.3,48.3 L 606.5,52.1" style="fill:none;fill-rule:evenodd;stroke:#FF0000;stroke-width:2.0px;stroke-linecap:butt;stroke-linejoin:miter;stroke-opacity:1"/>
<path class="bond-1 atom-1 atom-2" d="M 579.5,39.6 L 593.6,43.4" style="fill:none;fill-rule:evenodd;stroke:#000000;stroke-width:2.0px;stroke-linecap:butt;stroke-linejoin:miter;stroke-opacity:1"/>
<path class="bond-1 atom-1 atom-2" d="M 593.6,43.4 L 607.8,47.2" style="fill:none;fill-rule:evenodd;stroke:#FF0000;stroke-width:2.0px;stroke-linecap:butt;stroke-linejoin:miter;stroke-opacity:1"/>
<path class="bond-2 atom-1 atom-3" d="M 580.2,42.4 L 556.5,66.1" style="fill:none;fill-rule:evenodd;stroke:#000000;stroke-width:2.0px;stroke-linecap:butt;stroke-linejoin:miter;stroke-opacity:1"/>
<path class="bond-3 atom-3 atom-4" d="M 556.5,66.1 L 532.8,89.9" style="fill:none;fill-rule:evenodd;stroke:#000000;stroke-width:2.0px;stroke-linecap:butt;stroke-linejoin:miter;stroke-opacity:1"/>
<path class="bond-4 atom-3 atom-5" d="M 556.5,66.1 L 565.6,75.3" style="fill:none;fill-rule:evenodd;stroke:#000000;stroke-width:2.0px;stroke-linecap:butt;stroke-linejoin:miter;stroke-opacity:1"/>
<path class="bond-4 atom-3 atom-5" d="M 565.6,75.3 L 574.8,84.4" style="fill:none;fill-rule:evenodd;stroke:#FF0000;stroke-width:2.0px;stroke-linecap:butt;stroke-linejoin:miter;stroke-opacity:1"/>
<path class="bond-5 atom-3 atom-6" d="M 556.5,66.1 L 532.8,42.4" style="fill:none;fill-rule:evenodd;stroke:#000000;stroke-width:2.0px;stroke-linecap:butt;stroke-linejoin:miter;stroke-opacity:1"/>
<path class="bond-6 atom-6 atom-7" d="M 533.5,39.6 L 519.4,43.4" style="fill:none;fill-rule:evenodd;stroke:#000000;stroke-width:2.0px;stroke-linecap:butt;stroke-linejoin:miter;stroke-opacity:1"/>
<path class="bond-6 atom-6 atom-7" d="M 519.4,43.4 L 505.2,47.2" style="fill:none;fill-rule:evenodd;stroke:#FF0000;stroke-width:2.0px;stroke-linecap:butt;stroke-linejoin:miter;stroke-opacity:1"/>
<path class="bond-6 atom-6 atom-7" d="M 534.8,44.5 L 520.7,48.3" style="fill:none;fill-rule:evenodd;stroke:#000000;stroke-width:2.0px;stroke-linecap:butt;stroke-linejoin:miter;stroke-opacity:1"/>
<path class="bond-6 atom-6 atom-7" d="M 520.7,48.3 L 506.5,52.1" style="fill:none;fill-rule:evenodd;stroke:#FF0000;stroke-width:2.0px;stroke-linecap:butt;stroke-linejoin:miter;stroke-opacity:1"/>
<path class="bond-7 atom-6 atom-8" d="M 532.8,42.4 L 536.3,29.2" style="fill:none;fill-rule:evenodd;stroke:#000000;stroke-width:2.0px;stroke-linecap:butt;stroke-linejoin:miter;stroke-opacity:1"/>
<path class="bond-7 atom-6 atom-8" d="M 536.3,29.2 L 539.8,16.1" style="fill:none;fill-rule:evenodd;stroke:#FF0000;stroke-width:2.0px;stroke-linecap:butt;stroke-linejoin:miter;stroke-opacity:1"/>
<path d="M 579.8,40.8 L 580.2,42.4 L 579.0,43.6" style="fill:none;stroke:#000000;stroke-width:2.0px;stroke-linecap:butt;stroke-linejoin:miter;stroke-opacity:1;"/>
<path d="M 534.0,43.6 L 532.8,42.4 L 532.9,41.7" style="fill:none;stroke:#000000;stroke-width:2.0px;stroke-linecap:butt;stroke-linejoin:miter;stroke-opacity:1;"/>
<path class="atom-2" d="M 608.3 51.1 Q 608.3 48.8, 609.4 47.6 Q 610.5 46.3, 612.6 46.3 Q 614.7 46.3, 615.9 47.6 Q 617.0 48.8, 617.0 51.1 Q 617.0 53.4, 615.9 54.7 Q 614.7 56.0, 612.6 56.0 Q 610.5 56.0, 609.4 54.7 Q 608.3 53.4, 608.3 51.1 M 612.6 55.0 Q 614.1 55.0, 614.9 54.0 Q 615.7 53.0, 615.7 51.1 Q 615.7 49.3, 614.9 48.3 Q 614.1 47.4, 612.6 47.4 Q 611.2 47.4, 610.4 48.3 Q 609.6 49.2, 609.6 51.1 Q 609.6 53.0, 610.4 54.0 Q 611.2 55.0, 612.6 55.0 " fill="#FF0000"/>
<path class="atom-5" d="M 575.9 89.9 Q 575.9 87.6, 577.0 86.3 Q 578.1 85.1, 580.2 85.1 Q 582.3 85.1, 583.5 86.3 Q 584.6 87.6, 584.6 89.9 Q 584.6 92.2, 583.4 93.5 Q 582.3 94.8, 580.2 94.8 Q 578.1 94.8, 577.0 93.5 Q 575.9 92.2, 575.9 89.9 M 580.2 93.7 Q 581.7 93.7, 582.5 92.8 Q 583.2 91.8, 583.2 89.9 Q 583.2 88.0, 582.5 87.1 Q 581.7 86.1, 580.2 86.1 Q 578.8 86.1, 578.0 87.1 Q 577.2 88.0, 577.2 89.9 Q 577.2 91.8, 578.0 92.8 Q 578.8 93.7, 580.2 93.7 " fill="#FF0000"/>
<path class="atom-5" d="M 586.1 85.2 L 587.4 85.2 L 587.4 89.2 L 592.2 89.2 L 592.2 85.2 L 593.5 85.2 L 593.5 94.7 L 592.2 94.7 L 592.2 90.3 L 587.4 90.3 L 587.4 94.7 L 586.1 94.7 L 586.1 85.2 " fill="#FF0000"/>
<path class="atom-7" d="M 496.0 51.1 Q 496.0 48.8, 497.1 47.6 Q 498.3 46.3, 500.4 46.3 Q 502.5 46.3, 503.6 47.6 Q 504.7 48.8, 504.7 51.1 Q 504.7 53.4, 503.6 54.7 Q 502.4 56.0, 500.4 56.0 Q 498.3 56.0, 497.1 54.7 Q 496.0 53.4, 496.0 51.1 M 500.4 55.0 Q 501.8 55.0, 502.6 54.0 Q 503.4 53.0, 503.4 51.1 Q 503.4 49.3, 502.6 48.3 Q 501.8 47.4, 500.4 47.4 Q 498.9 47.4, 498.1 48.3 Q 497.3 49.2, 497.3 51.1 Q 497.3 53.0, 498.1 54.0 Q 498.9 55.0, 500.4 55.0 " fill="#FF0000"/>
<path class="atom-8" d="M 537.1 10.0 Q 537.1 7.7, 538.2 6.5 Q 539.4 5.2, 541.5 5.2 Q 543.6 5.2, 544.7 6.5 Q 545.8 7.7, 545.8 10.0 Q 545.8 12.3, 544.7 13.6 Q 543.5 14.9, 541.5 14.9 Q 539.4 14.9, 538.2 13.6 Q 537.1 12.3, 537.1 10.0 M 541.5 13.9 Q 542.9 13.9, 543.7 12.9 Q 544.5 11.9, 544.5 10.0 Q 544.5 8.2, 543.7 7.2 Q 542.9 6.3, 541.5 6.3 Q 540.0 6.3, 539.2 7.2 Q 538.4 8.1, 538.4 10.0 Q 538.4 11.9, 539.2 12.9 Q 540.0 13.9, 541.5 13.9 " fill="#FF0000"/>
<path class="atom-8" d="M 547.2 6.7 L 550.4 6.7 L 550.4 7.4 L 547.2 7.4 L 547.2 6.7 " fill="#FF0000"/>
<path d="M 326.0,50.0 L 380.0,50.0" style="fill:none;fill-rule:evenodd;stroke:#000000;stroke-width:2.0px;stroke-linecap:butt;stroke-linejoin:miter;stroke-opacity:1"/>
<path d="M 380.0,50.0 L 375.0,52.9" style="fill:none;fill-rule:evenodd;stroke:#000000;stroke-width:2.0px;stroke-linecap:butt;stroke-linejoin:miter;stroke-opacity:1"/>
<path d="M 380.0,50.0 L 375.0,47.1" style="fill:none;fill-rule:evenodd;stroke:#000000;stroke-width:2.0px;stroke-linecap:butt;stroke-linejoin:miter;stroke-opacity:1"/>
</svg>